M48
; DRILL file {KiCad 7.0.9} date Mon 15 Jan 2024 07:30:31 AM CET
; FORMAT={-:-/ absolute / inch / decimal}
; #@! TF.CreationDate,2024-01-15T07:30:31+01:00
; #@! TF.GenerationSoftware,Kicad,Pcbnew,7.0.9
; #@! TF.FileFunction,Plated,1,2,PTH
FMAT,2
INCH
; #@! TA.AperFunction,Plated,PTH,ViaDrill
T1C0.0100
; #@! TA.AperFunction,Plated,PTH,ComponentDrill
T2C0.0157
%
G90
G05
T1
X2.8344Y-4.8324
X2.8558Y-4.3056
X2.895Y-4.3217
X2.8962Y-4.205
X2.92Y-5.025
X2.965Y-4.1
X2.965Y-4.595
X2.965Y-4.685
X3.0Y-4.455
X3.0Y-4.48
X3.0Y-4.505
X3.0Y-4.53
X3.0Y-4.555
X3.005Y-4.13
X3.01Y-4.02
X3.01Y-4.175
X3.015Y-4.215
X3.03Y-4.72
X3.0309Y-4.106
X3.04Y-4.32
X3.068Y-4.2889
X3.07Y-4.41
X3.1Y-4.6
X3.1044Y-4.325
X3.105Y-4.41
X3.1083Y-4.0123
X3.11Y-4.865
X3.1163Y-3.9856
X3.1513Y-4.606
X3.16Y-4.2889
X3.23Y-4.515
X3.235Y-4.165
X3.235Y-4.195
X3.235Y-4.67
X3.2405Y-4.6427
X3.25Y-4.13
X3.25Y-4.36
X3.255Y-4.465
X3.26Y-4.62
T2
G00X2.8817Y-4.0722
M15
G01X2.8817Y-4.0151
M16
G05
G00X3.2183Y-4.0722
M15
G01X3.2183Y-4.0151
M16
G05
T0
M30
