%TF.GenerationSoftware,KiCad,Pcbnew,7.0.9*%
%TF.CreationDate,2024-01-15T07:30:31+01:00*%
%TF.ProjectId,usb_dongle_hw,7573625f-646f-46e6-976c-655f68772e6b,rev?*%
%TF.SameCoordinates,Original*%
%TF.FileFunction,Soldermask,Top*%
%TF.FilePolarity,Negative*%
%FSLAX46Y46*%
G04 Gerber Fmt 4.6, Leading zero omitted, Abs format (unit mm)*
G04 Created by KiCad (PCBNEW 7.0.9) date 2024-01-15 07:30:31*
%MOMM*%
%LPD*%
G01*
G04 APERTURE LIST*
G04 Aperture macros list*
%AMRoundRect*
0 Rectangle with rounded corners*
0 $1 Rounding radius*
0 $2 $3 $4 $5 $6 $7 $8 $9 X,Y pos of 4 corners*
0 Add a 4 corners polygon primitive as box body*
4,1,4,$2,$3,$4,$5,$6,$7,$8,$9,$2,$3,0*
0 Add four circle primitives for the rounded corners*
1,1,$1+$1,$2,$3*
1,1,$1+$1,$4,$5*
1,1,$1+$1,$6,$7*
1,1,$1+$1,$8,$9*
0 Add four rect primitives between the rounded corners*
20,1,$1+$1,$2,$3,$4,$5,0*
20,1,$1+$1,$4,$5,$6,$7,0*
20,1,$1+$1,$6,$7,$8,$9,0*
20,1,$1+$1,$8,$9,$2,$3,0*%
G04 Aperture macros list end*
%ADD10RoundRect,0.200000X-0.275000X0.200000X-0.275000X-0.200000X0.275000X-0.200000X0.275000X0.200000X0*%
%ADD11RoundRect,0.140000X-0.170000X0.140000X-0.170000X-0.140000X0.170000X-0.140000X0.170000X0.140000X0*%
%ADD12RoundRect,0.225000X-0.250000X0.225000X-0.250000X-0.225000X0.250000X-0.225000X0.250000X0.225000X0*%
%ADD13RoundRect,0.135000X0.185000X-0.135000X0.185000X0.135000X-0.185000X0.135000X-0.185000X-0.135000X0*%
%ADD14RoundRect,0.140000X0.170000X-0.140000X0.170000X0.140000X-0.170000X0.140000X-0.170000X-0.140000X0*%
%ADD15RoundRect,0.050000X-0.387500X-0.050000X0.387500X-0.050000X0.387500X0.050000X-0.387500X0.050000X0*%
%ADD16RoundRect,0.050000X-0.050000X-0.387500X0.050000X-0.387500X0.050000X0.387500X-0.050000X0.387500X0*%
%ADD17R,3.200000X3.200000*%
%ADD18RoundRect,0.135000X-0.135000X-0.185000X0.135000X-0.185000X0.135000X0.185000X-0.135000X0.185000X0*%
%ADD19R,1.400000X1.200000*%
%ADD20R,0.300000X0.900000*%
%ADD21O,0.800000X2.300000*%
%ADD22R,0.800000X2.000000*%
%ADD23RoundRect,0.150000X-0.512500X-0.150000X0.512500X-0.150000X0.512500X0.150000X-0.512500X0.150000X0*%
%ADD24RoundRect,0.140000X-0.140000X-0.170000X0.140000X-0.170000X0.140000X0.170000X-0.140000X0.170000X0*%
%ADD25RoundRect,0.218750X0.256250X-0.218750X0.256250X0.218750X-0.256250X0.218750X-0.256250X-0.218750X0*%
G04 APERTURE END LIST*
D10*
%TO.C,R5*%
X79375000Y-105000000D03*
X79375000Y-106650000D03*
%TD*%
D11*
%TO.C,C8*%
X77851000Y-119662000D03*
X77851000Y-120622000D03*
%TD*%
D12*
%TO.C,C16*%
X79364000Y-125082000D03*
X79364000Y-126632000D03*
%TD*%
D13*
%TO.C,R1*%
X80772000Y-120652000D03*
X80772000Y-119632000D03*
%TD*%
D14*
%TO.C,C2*%
X77343000Y-123416000D03*
X77343000Y-122456000D03*
%TD*%
%TO.C,C14*%
X82042000Y-108938000D03*
X82042000Y-107978000D03*
%TD*%
%TO.C,C10*%
X77343000Y-108938000D03*
X77343000Y-107978000D03*
%TD*%
D12*
%TO.C,C4*%
X79248000Y-120002000D03*
X79248000Y-121552000D03*
%TD*%
D11*
%TO.C,C9*%
X82550000Y-112042000D03*
X82550000Y-113002000D03*
%TD*%
D15*
%TO.C,U1*%
X74156500Y-111835500D03*
X74156500Y-112235500D03*
X74156500Y-112635500D03*
X74156500Y-113035500D03*
X74156500Y-113435500D03*
X74156500Y-113835500D03*
X74156500Y-114235500D03*
X74156500Y-114635500D03*
X74156500Y-115035500D03*
X74156500Y-115435500D03*
X74156500Y-115835500D03*
X74156500Y-116235500D03*
X74156500Y-116635500D03*
X74156500Y-117035500D03*
D16*
X74994000Y-117873000D03*
X75394000Y-117873000D03*
X75794000Y-117873000D03*
X76194000Y-117873000D03*
X76594000Y-117873000D03*
X76994000Y-117873000D03*
X77394000Y-117873000D03*
X77794000Y-117873000D03*
X78194000Y-117873000D03*
X78594000Y-117873000D03*
X78994000Y-117873000D03*
X79394000Y-117873000D03*
X79794000Y-117873000D03*
X80194000Y-117873000D03*
D15*
X81031500Y-117035500D03*
X81031500Y-116635500D03*
X81031500Y-116235500D03*
X81031500Y-115835500D03*
X81031500Y-115435500D03*
X81031500Y-115035500D03*
X81031500Y-114635500D03*
X81031500Y-114235500D03*
X81031500Y-113835500D03*
X81031500Y-113435500D03*
X81031500Y-113035500D03*
X81031500Y-112635500D03*
X81031500Y-112235500D03*
X81031500Y-111835500D03*
D16*
X80194000Y-110998000D03*
X79794000Y-110998000D03*
X79394000Y-110998000D03*
X78994000Y-110998000D03*
X78594000Y-110998000D03*
X78194000Y-110998000D03*
X77794000Y-110998000D03*
X77394000Y-110998000D03*
X76994000Y-110998000D03*
X76594000Y-110998000D03*
X76194000Y-110998000D03*
X75794000Y-110998000D03*
X75394000Y-110998000D03*
X74994000Y-110998000D03*
D17*
X77594000Y-114435500D03*
%TD*%
D12*
%TO.C,C15*%
X73152000Y-125082000D03*
X73152000Y-126632000D03*
%TD*%
D18*
%TO.C,R3*%
X72515000Y-105922000D03*
X73535000Y-105922000D03*
%TD*%
D19*
%TO.C,Y1*%
X75692000Y-121313000D03*
X73492000Y-121313000D03*
X73492000Y-123013000D03*
X75692000Y-123013000D03*
%TD*%
D14*
%TO.C,C13*%
X72517000Y-111958000D03*
X72517000Y-110998000D03*
%TD*%
D20*
%TO.C,J1*%
X74720000Y-103108000D03*
X75220000Y-103108000D03*
X75720000Y-103108000D03*
X76220000Y-103108000D03*
X78720000Y-103108000D03*
X79220000Y-103108000D03*
X79720000Y-103108000D03*
X80220000Y-103108000D03*
X78220000Y-103108000D03*
X77720000Y-103108000D03*
X77220000Y-103108000D03*
X76720000Y-103108000D03*
D21*
X81745000Y-102708000D03*
D22*
X81045000Y-101908000D03*
X73895000Y-101908000D03*
D21*
X73195000Y-102708000D03*
%TD*%
D14*
%TO.C,C5*%
X80899000Y-108938000D03*
X80899000Y-107978000D03*
%TD*%
D11*
%TO.C,C7*%
X82550000Y-116106000D03*
X82550000Y-117066000D03*
%TD*%
D23*
%TO.C,U3*%
X75057000Y-125095000D03*
X75057000Y-126045000D03*
X75057000Y-126995000D03*
X77332000Y-126995000D03*
X77332000Y-125095000D03*
%TD*%
D14*
%TO.C,C12*%
X72517000Y-115542000D03*
X72517000Y-114582000D03*
%TD*%
%TO.C,C6*%
X78486000Y-108938000D03*
X78486000Y-107978000D03*
%TD*%
D24*
%TO.C,C11*%
X74577000Y-105922000D03*
X75537000Y-105922000D03*
%TD*%
D13*
%TO.C,R4*%
X77851000Y-106809000D03*
X77851000Y-105789000D03*
%TD*%
D24*
%TO.C,C1*%
X72926000Y-119761000D03*
X73886000Y-119761000D03*
%TD*%
D14*
%TO.C,C3*%
X79629000Y-108938000D03*
X79629000Y-107978000D03*
%TD*%
D10*
%TO.C,R6*%
X81153000Y-105000000D03*
X81153000Y-106650000D03*
%TD*%
D13*
%TO.C,R2*%
X81915000Y-120652000D03*
X81915000Y-119632000D03*
%TD*%
D25*
%TO.C,D1*%
X81788000Y-123723500D03*
X81788000Y-122148500D03*
%TD*%
M02*
