%TF.GenerationSoftware,KiCad,Pcbnew,7.0.9*%
%TF.CreationDate,2024-01-15T07:30:31+01:00*%
%TF.ProjectId,usb_dongle_hw,7573625f-646f-46e6-976c-655f68772e6b,rev?*%
%TF.SameCoordinates,Original*%
%TF.FileFunction,Copper,L2,Bot*%
%TF.FilePolarity,Positive*%
%FSLAX46Y46*%
G04 Gerber Fmt 4.6, Leading zero omitted, Abs format (unit mm)*
G04 Created by KiCad (PCBNEW 7.0.9) date 2024-01-15 07:30:31*
%MOMM*%
%LPD*%
G01*
G04 APERTURE LIST*
%TA.AperFunction,ComponentPad*%
%ADD10O,0.800000X2.300000*%
%TD*%
%TA.AperFunction,SMDPad,CuDef*%
%ADD11C,1.000000*%
%TD*%
%TA.AperFunction,ViaPad*%
%ADD12C,0.508000*%
%TD*%
%TA.AperFunction,Conductor*%
%ADD13C,0.180000*%
%TD*%
%TA.AperFunction,Conductor*%
%ADD14C,0.300000*%
%TD*%
%TA.AperFunction,Conductor*%
%ADD15C,0.200000*%
%TD*%
G04 APERTURE END LIST*
D10*
%TO.P,J1,Gnd,Gnd*%
%TO.N,GND*%
X81745000Y-102708000D03*
X73195000Y-102708000D03*
%TD*%
D11*
%TO.P,TP6,1,1*%
%TO.N,USB_d-*%
X80137000Y-101854000D03*
%TD*%
%TO.P,TP2,1,1*%
%TO.N,GND*%
X80137000Y-104013000D03*
%TD*%
%TO.P,TP7,1,1*%
%TO.N,+5V*%
X77851000Y-104013000D03*
%TD*%
%TO.P,TP8,1,1*%
%TO.N,GND*%
X77851000Y-113411000D03*
%TD*%
%TO.P,TP5,1,1*%
%TO.N,USB_d+*%
X77851000Y-101854000D03*
%TD*%
%TO.P,TP3,1,1*%
%TO.N,SWDIO*%
X80010000Y-115443000D03*
%TD*%
%TO.P,TP1,1,1*%
%TO.N,+3V3*%
X80010000Y-113284000D03*
%TD*%
%TO.P,TP4,1,1*%
%TO.N,SWCLK*%
X77851000Y-115443000D03*
%TD*%
D12*
%TO.N,GND*%
X72538063Y-109361437D03*
X76200000Y-113157000D03*
X82677000Y-113411000D03*
X75311000Y-104140000D03*
X76200000Y-115062000D03*
X71994401Y-122742918D03*
X76200000Y-113792000D03*
X82804000Y-117348000D03*
X76200000Y-114427000D03*
X76454000Y-106045000D03*
X75311000Y-116713000D03*
X76200000Y-115697000D03*
%TO.N,+1V1*%
X80264000Y-108938000D03*
X77978000Y-112014000D03*
%TO.N,+3V3*%
X78994000Y-123571000D03*
X82550000Y-110744000D03*
X75311000Y-118999000D03*
X77927200Y-108938000D03*
X76962000Y-119888000D03*
X82307753Y-117924237D03*
X76327000Y-104902000D03*
X82550000Y-104902000D03*
%TO.N,+5V*%
X76454000Y-102108000D03*
X74168000Y-127635000D03*
X76984303Y-104292324D03*
%TO.N,USB_d+*%
X78950498Y-101912002D03*
%TO.N,USB_d-*%
X79154568Y-101234570D03*
%TO.N,Net-(U1-GPIO25)*%
X82169000Y-118618000D03*
X82042000Y-114681000D03*
%TO.N,SWDIO*%
X80043545Y-116992117D03*
%TO.N,SWCLK*%
X78739328Y-116839328D03*
%TO.N,QSPI_SD3*%
X77216000Y-109728000D03*
X76581000Y-107061000D03*
%TO.N,QSPI_SD1*%
X73564500Y-106807000D03*
X73533000Y-109772402D03*
%TO.N,/usb-d+*%
X82169000Y-105791000D03*
X78850500Y-109855000D03*
%TO.N,/usb-d-*%
X78867000Y-112014000D03*
X82169000Y-106553000D03*
%TD*%
D13*
%TO.N,GND*%
X82677000Y-113411000D02*
X82014000Y-114074000D01*
X75311000Y-116713000D02*
X75311000Y-116586000D01*
X76454000Y-106045000D02*
X75311000Y-104902000D01*
X82014000Y-114074000D02*
X78514000Y-114074000D01*
X79121000Y-102997000D02*
X76454000Y-102997000D01*
X82804000Y-117348000D02*
X82586000Y-117130000D01*
X78514000Y-114074000D02*
X77851000Y-113411000D01*
X75311000Y-116586000D02*
X76200000Y-115697000D01*
X80137000Y-104013000D02*
X79121000Y-102997000D01*
X76454000Y-102997000D02*
X75311000Y-104140000D01*
X82586000Y-113502000D02*
X82677000Y-113411000D01*
X82586000Y-117130000D02*
X82586000Y-113502000D01*
X75311000Y-104902000D02*
X75311000Y-104140000D01*
%TO.N,+1V1*%
X77978000Y-112014000D02*
X77978000Y-111506000D01*
X78998167Y-108938000D02*
X80264000Y-108938000D01*
X78306500Y-109629667D02*
X78998167Y-108938000D01*
X78306500Y-111177500D02*
X78306500Y-109629667D01*
X77978000Y-111506000D02*
X78306500Y-111177500D01*
D14*
%TO.N,+3V3*%
X82419185Y-118014000D02*
X82804000Y-118398815D01*
X82397516Y-118014000D02*
X82419185Y-118014000D01*
X75534000Y-119222000D02*
X75311000Y-118999000D01*
X76962000Y-119888000D02*
X76200000Y-119888000D01*
X77927200Y-106502200D02*
X77927200Y-108938000D01*
X80010000Y-113284000D02*
X82550000Y-110744000D01*
X82804000Y-118398815D02*
X82804000Y-118872000D01*
X82454000Y-119222000D02*
X75534000Y-119222000D01*
X76200000Y-119888000D02*
X75311000Y-118999000D01*
X78994000Y-123571000D02*
X77978000Y-123571000D01*
X82307753Y-117924237D02*
X82397516Y-118014000D01*
X77978000Y-123571000D02*
X76962000Y-122555000D01*
X76962000Y-122555000D02*
X76962000Y-119888000D01*
X76327000Y-104902000D02*
X77927200Y-106502200D01*
X82550000Y-104902000D02*
X76327000Y-104902000D01*
X82804000Y-118872000D02*
X82454000Y-119222000D01*
%TO.N,+5V*%
X76454000Y-102108000D02*
X75692000Y-102108000D01*
X75692000Y-102108000D02*
X74168000Y-103632000D01*
D13*
X77263627Y-104013000D02*
X76984303Y-104292324D01*
D14*
X74168000Y-103632000D02*
X74168000Y-127635000D01*
D13*
X77851000Y-104013000D02*
X77263627Y-104013000D01*
D15*
%TO.N,USB_d+*%
X78892496Y-101854000D02*
X77851000Y-101854000D01*
X78950498Y-101912002D02*
X78892496Y-101854000D01*
%TO.N,USB_d-*%
X79517570Y-101234570D02*
X80137000Y-101854000D01*
X79154568Y-101234570D02*
X79517570Y-101234570D01*
D13*
%TO.N,Net-(U1-GPIO25)*%
X81534000Y-115189000D02*
X81534000Y-117983000D01*
X81534000Y-117983000D02*
X82169000Y-118618000D01*
X82042000Y-114681000D02*
X81534000Y-115189000D01*
%TO.N,SWDIO*%
X80043545Y-116992117D02*
X80043545Y-115476545D01*
X80043545Y-115476545D02*
X80010000Y-115443000D01*
%TO.N,SWCLK*%
X78739328Y-116331328D02*
X77851000Y-115443000D01*
X78739328Y-116839328D02*
X78739328Y-116331328D01*
%TO.N,QSPI_SD3*%
X77216000Y-109728000D02*
X77216000Y-107696000D01*
X77216000Y-107696000D02*
X76581000Y-107061000D01*
%TO.N,QSPI_SD1*%
X73564500Y-109740902D02*
X73564500Y-106807000D01*
X73533000Y-109772402D02*
X73564500Y-109740902D01*
D15*
%TO.N,/usb-d+*%
X82169000Y-105791000D02*
X81961000Y-105999000D01*
X81939525Y-105999000D02*
X81615000Y-106323525D01*
X81961000Y-105999000D02*
X81939525Y-105999000D01*
X81615000Y-106323525D02*
X81615000Y-106782475D01*
X81615000Y-106782475D02*
X81719000Y-106886475D01*
X81719000Y-108525603D02*
X80389603Y-109855000D01*
X80389603Y-109855000D02*
X78850500Y-109855000D01*
X81719000Y-106886475D02*
X81719000Y-108525603D01*
%TO.N,/usb-d-*%
X79900443Y-110980561D02*
X79900441Y-110980560D01*
X80748971Y-110132030D02*
X80748970Y-110132030D01*
X81688450Y-110222981D02*
X81688451Y-110222981D01*
X81264187Y-110222981D02*
X81173237Y-110132031D01*
X81597499Y-109707766D02*
X81688450Y-109798717D01*
X79900441Y-110980560D02*
X78867000Y-112014000D01*
X80748970Y-110556296D02*
X80748969Y-110556296D01*
X82169000Y-108712000D02*
X81597500Y-109283500D01*
X81597500Y-109707766D02*
X81597499Y-109707766D01*
X80748973Y-110132031D02*
X80748971Y-110132030D01*
X80748969Y-110556296D02*
X80839947Y-110647274D01*
X80415684Y-111071538D02*
X80324707Y-110980561D01*
X80839947Y-111071538D02*
X80839948Y-111071538D01*
X82169000Y-106553000D02*
X82169000Y-108712000D01*
X81173236Y-110132032D02*
G75*
G03*
X80748974Y-110132032I-212131J-212131D01*
G01*
X81264188Y-110222980D02*
G75*
G03*
X81688450Y-110222980I212131J212131D01*
G01*
X80324706Y-110980562D02*
G75*
G03*
X79900444Y-110980562I-212131J-212131D01*
G01*
X81688401Y-110222932D02*
G75*
G03*
X81688450Y-109798717I-212101J212132D01*
G01*
X80749007Y-110132067D02*
G75*
G03*
X80748970Y-110556296I212093J-212133D01*
G01*
X80839941Y-111071532D02*
G75*
G03*
X80839947Y-110647274I-212141J212132D01*
G01*
X81597467Y-109283467D02*
G75*
G03*
X81597500Y-109707766I212133J-212133D01*
G01*
X80415685Y-111071537D02*
G75*
G03*
X80839947Y-111071537I212131J212131D01*
G01*
%TD*%
%TA.AperFunction,Conductor*%
%TO.N,GND*%
G36*
X78606891Y-100502585D02*
G01*
X78652646Y-100555389D01*
X78662590Y-100624547D01*
X78633565Y-100688103D01*
X78627533Y-100694581D01*
X78560944Y-100761169D01*
X78466781Y-100911029D01*
X78465539Y-100910249D01*
X78424028Y-100956218D01*
X78356599Y-100974524D01*
X78300688Y-100959908D01*
X78235732Y-100925188D01*
X78235729Y-100925187D01*
X78235727Y-100925186D01*
X78047132Y-100867976D01*
X78047129Y-100867975D01*
X77851000Y-100848659D01*
X77654870Y-100867975D01*
X77466266Y-100925188D01*
X77292467Y-101018086D01*
X77292460Y-101018090D01*
X77140116Y-101143116D01*
X77015090Y-101295460D01*
X77015088Y-101295463D01*
X76968152Y-101383275D01*
X76919189Y-101433119D01*
X76851052Y-101448579D01*
X76792824Y-101429816D01*
X76783438Y-101423918D01*
X76622951Y-101367761D01*
X76454003Y-101348726D01*
X76453997Y-101348726D01*
X76285048Y-101367761D01*
X76124560Y-101423919D01*
X76101365Y-101438494D01*
X76035393Y-101457500D01*
X75777504Y-101457500D01*
X75761493Y-101455732D01*
X75761471Y-101455974D01*
X75753704Y-101455240D01*
X75753703Y-101455240D01*
X75681796Y-101457500D01*
X75651075Y-101457500D01*
X75651071Y-101457500D01*
X75651061Y-101457501D01*
X75643793Y-101458419D01*
X75637976Y-101458876D01*
X75589435Y-101460402D01*
X75589424Y-101460404D01*
X75569048Y-101466323D01*
X75550008Y-101470266D01*
X75528947Y-101472927D01*
X75528939Y-101472929D01*
X75483775Y-101490811D01*
X75478247Y-101492703D01*
X75431602Y-101506255D01*
X75413332Y-101517060D01*
X75395863Y-101525618D01*
X75376128Y-101533432D01*
X75376126Y-101533433D01*
X75336839Y-101561977D01*
X75331956Y-101565184D01*
X75290132Y-101589919D01*
X75275126Y-101604926D01*
X75260336Y-101617558D01*
X75243167Y-101630032D01*
X75243165Y-101630034D01*
X75212194Y-101667470D01*
X75208262Y-101671791D01*
X74306681Y-102573372D01*
X74245358Y-102606857D01*
X74175667Y-102601873D01*
X74119733Y-102560001D01*
X74095316Y-102494537D01*
X74095000Y-102485691D01*
X74095000Y-102161553D01*
X74094999Y-102161552D01*
X73395000Y-102861552D01*
X73395000Y-102154447D01*
X73998953Y-101550493D01*
X73927124Y-101426078D01*
X73927123Y-101426077D01*
X73800539Y-101285490D01*
X73800536Y-101285488D01*
X73647477Y-101174282D01*
X73474644Y-101097334D01*
X73289594Y-101058000D01*
X73100406Y-101058000D01*
X72915355Y-101097334D01*
X72742518Y-101174286D01*
X72589464Y-101285487D01*
X72462873Y-101426081D01*
X72391044Y-101550492D01*
X72391045Y-101550493D01*
X72995000Y-102154447D01*
X72995000Y-103261552D01*
X72391045Y-103865505D01*
X72462874Y-103989920D01*
X72589460Y-104130509D01*
X72589463Y-104130511D01*
X72742522Y-104241717D01*
X72915355Y-104318665D01*
X73100406Y-104358000D01*
X73289593Y-104358000D01*
X73367718Y-104341393D01*
X73437385Y-104346708D01*
X73493119Y-104388845D01*
X73517225Y-104454424D01*
X73517500Y-104462683D01*
X73517500Y-105942209D01*
X73497815Y-106009248D01*
X73445011Y-106055003D01*
X73407388Y-106065428D01*
X73395546Y-106066763D01*
X73235061Y-106122918D01*
X73091099Y-106213376D01*
X72970876Y-106333599D01*
X72880419Y-106477560D01*
X72824261Y-106638048D01*
X72805226Y-106806997D01*
X72805226Y-106807002D01*
X72824261Y-106975951D01*
X72880419Y-107136440D01*
X72954993Y-107255122D01*
X72974000Y-107321095D01*
X72974000Y-109213016D01*
X72954315Y-109280055D01*
X72943544Y-109293421D01*
X72943717Y-109293559D01*
X72939376Y-109299001D01*
X72848919Y-109442962D01*
X72792761Y-109603450D01*
X72773726Y-109772399D01*
X72773726Y-109772404D01*
X72792761Y-109941353D01*
X72814599Y-110003761D01*
X72848918Y-110101839D01*
X72939376Y-110245802D01*
X73059600Y-110366026D01*
X73132898Y-110412082D01*
X73179375Y-110441286D01*
X73203563Y-110456484D01*
X73283804Y-110484561D01*
X73364048Y-110512640D01*
X73407382Y-110517522D01*
X73471796Y-110544588D01*
X73511352Y-110602182D01*
X73517500Y-110640742D01*
X73517500Y-127216393D01*
X73498495Y-127282363D01*
X73483918Y-127305561D01*
X73427761Y-127466048D01*
X73408726Y-127634997D01*
X73408726Y-127635002D01*
X73427761Y-127803951D01*
X73448236Y-127862464D01*
X73483918Y-127964437D01*
X73574376Y-128108400D01*
X73694600Y-128228624D01*
X73699365Y-128231618D01*
X73761255Y-128270506D01*
X73807546Y-128322841D01*
X73818194Y-128391894D01*
X73789819Y-128455743D01*
X73731429Y-128494115D01*
X73695283Y-128499500D01*
X73415624Y-128499500D01*
X73411574Y-128499367D01*
X73373554Y-128496875D01*
X73329950Y-128494017D01*
X73148160Y-128481015D01*
X73140480Y-128479980D01*
X73024179Y-128456846D01*
X72879952Y-128425472D01*
X72873196Y-128423597D01*
X72841481Y-128412831D01*
X72754178Y-128383196D01*
X72719368Y-128370212D01*
X72621857Y-128333841D01*
X72616099Y-128331355D01*
X72500647Y-128274421D01*
X72378691Y-128207828D01*
X72373957Y-128204962D01*
X72266949Y-128133461D01*
X72264239Y-128131543D01*
X72224192Y-128101564D01*
X72154953Y-128049732D01*
X72151248Y-128046729D01*
X72054092Y-127961526D01*
X72051149Y-127958769D01*
X71954828Y-127862448D01*
X71952069Y-127859502D01*
X71903355Y-127803954D01*
X71866865Y-127762345D01*
X71863871Y-127758652D01*
X71782054Y-127649358D01*
X71780137Y-127646649D01*
X71708636Y-127539641D01*
X71705770Y-127534906D01*
X71639178Y-127412952D01*
X71582243Y-127297499D01*
X71579757Y-127291741D01*
X71551653Y-127216393D01*
X71530405Y-127159425D01*
X71489995Y-127040383D01*
X71488131Y-127033666D01*
X71456753Y-126889420D01*
X71452241Y-126866738D01*
X71433615Y-126773100D01*
X71432585Y-126765459D01*
X71419586Y-126583708D01*
X71416538Y-126537198D01*
X71414233Y-126502019D01*
X71414100Y-126497964D01*
X71414100Y-102484435D01*
X71414233Y-102480380D01*
X71415993Y-102453503D01*
X71419589Y-102398644D01*
X71432586Y-102216936D01*
X71433614Y-102209303D01*
X71443113Y-102161552D01*
X72295000Y-102161552D01*
X72295000Y-103254447D01*
X72841447Y-102708000D01*
X72841447Y-102707999D01*
X72295000Y-102161552D01*
X71443113Y-102161552D01*
X71456753Y-102092979D01*
X71457718Y-102088541D01*
X71488133Y-101948723D01*
X71489992Y-101942025D01*
X71530415Y-101822943D01*
X71579759Y-101690651D01*
X71582233Y-101684920D01*
X71639183Y-101569436D01*
X71705779Y-101447476D01*
X71708619Y-101442784D01*
X71780163Y-101335711D01*
X71782028Y-101333076D01*
X71863891Y-101223721D01*
X71866844Y-101220078D01*
X71952103Y-101122859D01*
X71954798Y-101119981D01*
X72051181Y-101023598D01*
X72054059Y-101020903D01*
X72151278Y-100935644D01*
X72154921Y-100932691D01*
X72264276Y-100850828D01*
X72266911Y-100848963D01*
X72373984Y-100777419D01*
X72378676Y-100774579D01*
X72500636Y-100707983D01*
X72616120Y-100651033D01*
X72621851Y-100648559D01*
X72754143Y-100599215D01*
X72873225Y-100558792D01*
X72879923Y-100556933D01*
X73024179Y-100525553D01*
X73030328Y-100524329D01*
X73140503Y-100502414D01*
X73148136Y-100501386D01*
X73329844Y-100488389D01*
X73382811Y-100484917D01*
X73411581Y-100483033D01*
X73415636Y-100482900D01*
X78539852Y-100482900D01*
X78606891Y-100502585D01*
G37*
%TD.AperFunction*%
%TA.AperFunction,Conductor*%
G36*
X77149931Y-102581605D02*
G01*
X77185263Y-102601934D01*
X77292460Y-102689909D01*
X77292467Y-102689913D01*
X77426087Y-102761334D01*
X77466273Y-102782814D01*
X77505848Y-102794819D01*
X77571846Y-102814840D01*
X77630284Y-102853137D01*
X77658741Y-102916950D01*
X77648180Y-102986017D01*
X77601955Y-103038410D01*
X77571846Y-103052160D01*
X77466271Y-103084186D01*
X77292467Y-103177086D01*
X77292460Y-103177090D01*
X77140116Y-103302116D01*
X77067474Y-103390632D01*
X77015090Y-103454462D01*
X77015089Y-103454463D01*
X77011226Y-103459171D01*
X77010231Y-103458354D01*
X76971477Y-103490726D01*
X76972868Y-103493134D01*
X76965832Y-103497195D01*
X76935232Y-103520676D01*
X76873632Y-103545519D01*
X76815354Y-103552085D01*
X76654864Y-103608242D01*
X76510902Y-103698700D01*
X76390679Y-103818923D01*
X76300220Y-103962886D01*
X76300219Y-103962890D01*
X76259343Y-104079707D01*
X76218622Y-104136483D01*
X76164465Y-104158596D01*
X76164835Y-104160214D01*
X76158045Y-104161763D01*
X75997561Y-104217918D01*
X75853599Y-104308376D01*
X75733376Y-104428599D01*
X75642919Y-104572560D01*
X75586761Y-104733048D01*
X75567726Y-104901997D01*
X75567726Y-104902002D01*
X75586761Y-105070951D01*
X75642919Y-105231439D01*
X75663807Y-105264682D01*
X75733376Y-105375400D01*
X75853600Y-105495624D01*
X75907542Y-105529518D01*
X75983449Y-105577214D01*
X75997563Y-105586082D01*
X76114789Y-105627101D01*
X76161515Y-105656461D01*
X76601844Y-106096790D01*
X76635329Y-106158113D01*
X76630345Y-106227805D01*
X76588473Y-106283738D01*
X76528048Y-106307691D01*
X76412048Y-106320762D01*
X76251560Y-106376919D01*
X76107599Y-106467376D01*
X75987376Y-106587599D01*
X75896919Y-106731560D01*
X75840761Y-106892048D01*
X75821726Y-107060997D01*
X75821726Y-107061002D01*
X75840761Y-107229951D01*
X75872654Y-107321095D01*
X75896918Y-107390437D01*
X75987376Y-107534400D01*
X76107600Y-107654624D01*
X76251563Y-107745082D01*
X76412046Y-107801237D01*
X76412049Y-107801238D01*
X76452433Y-107805788D01*
X76516848Y-107832854D01*
X76526232Y-107841326D01*
X76589181Y-107904274D01*
X76622666Y-107965597D01*
X76625500Y-107991956D01*
X76625500Y-109213904D01*
X76606494Y-109279876D01*
X76531919Y-109398560D01*
X76475761Y-109559048D01*
X76456726Y-109727997D01*
X76456726Y-109728002D01*
X76475761Y-109896951D01*
X76531919Y-110057439D01*
X76559819Y-110101841D01*
X76622376Y-110201400D01*
X76742600Y-110321624D01*
X76886563Y-110412082D01*
X77008521Y-110454756D01*
X77047048Y-110468238D01*
X77215997Y-110487274D01*
X77216000Y-110487274D01*
X77216003Y-110487274D01*
X77384954Y-110468237D01*
X77384956Y-110468237D01*
X77551045Y-110410120D01*
X77620824Y-110406558D01*
X77681451Y-110441286D01*
X77713679Y-110503280D01*
X77716000Y-110527161D01*
X77716000Y-110881543D01*
X77696315Y-110948582D01*
X77679681Y-110969225D01*
X77590691Y-111058213D01*
X77584589Y-111063565D01*
X77556851Y-111084850D01*
X77548270Y-111096034D01*
X77533090Y-111115816D01*
X77533088Y-111115819D01*
X77507303Y-111149422D01*
X77462059Y-111208384D01*
X77461419Y-111210086D01*
X77402699Y-111351848D01*
X77402698Y-111351850D01*
X77391919Y-111433733D01*
X77382405Y-111505998D01*
X77382405Y-111508011D01*
X77381916Y-111509705D01*
X77381344Y-111514057D01*
X77380688Y-111513970D01*
X77363399Y-111573983D01*
X77293919Y-111684560D01*
X77237761Y-111845048D01*
X77218726Y-112013997D01*
X77218726Y-112014002D01*
X77237761Y-112182951D01*
X77293919Y-112343441D01*
X77293920Y-112343442D01*
X77333470Y-112406386D01*
X77352470Y-112473622D01*
X77351134Y-112490552D01*
X77342475Y-112548922D01*
X77851000Y-113057447D01*
X78713076Y-113919522D01*
X78779348Y-113795537D01*
X78830840Y-113625792D01*
X78869138Y-113567353D01*
X78932950Y-113538897D01*
X79002017Y-113549457D01*
X79054410Y-113595681D01*
X79068161Y-113625791D01*
X79081186Y-113668728D01*
X79174086Y-113842532D01*
X79174090Y-113842539D01*
X79299116Y-113994883D01*
X79451460Y-114119909D01*
X79451467Y-114119913D01*
X79615516Y-114207599D01*
X79625273Y-114212814D01*
X79667302Y-114225563D01*
X79730846Y-114244840D01*
X79789284Y-114283137D01*
X79817741Y-114346950D01*
X79807180Y-114416017D01*
X79760955Y-114468410D01*
X79730846Y-114482160D01*
X79625271Y-114514186D01*
X79451467Y-114607086D01*
X79451460Y-114607090D01*
X79299116Y-114732116D01*
X79174090Y-114884460D01*
X79174086Y-114884467D01*
X79081186Y-115058271D01*
X79049160Y-115163846D01*
X79010863Y-115222284D01*
X78947050Y-115250741D01*
X78877983Y-115240180D01*
X78825590Y-115193955D01*
X78811840Y-115163846D01*
X78779813Y-115058271D01*
X78686913Y-114884467D01*
X78686909Y-114884460D01*
X78561883Y-114732116D01*
X78409539Y-114607090D01*
X78409532Y-114607086D01*
X78276678Y-114536074D01*
X78226834Y-114487112D01*
X78211373Y-114418974D01*
X78235205Y-114353295D01*
X78276678Y-114317358D01*
X78359522Y-114273076D01*
X77851001Y-113764553D01*
X77851000Y-113764553D01*
X77342476Y-114273076D01*
X77425320Y-114317357D01*
X77475165Y-114366319D01*
X77490626Y-114434457D01*
X77466795Y-114500137D01*
X77425321Y-114536074D01*
X77292467Y-114607085D01*
X77292460Y-114607090D01*
X77140116Y-114732116D01*
X77015090Y-114884460D01*
X77015086Y-114884467D01*
X76922188Y-115058266D01*
X76864975Y-115246870D01*
X76845659Y-115443000D01*
X76864975Y-115639129D01*
X76922188Y-115827733D01*
X77015086Y-116001532D01*
X77015090Y-116001539D01*
X77140116Y-116153883D01*
X77292460Y-116278909D01*
X77292467Y-116278913D01*
X77466266Y-116371811D01*
X77466269Y-116371811D01*
X77466273Y-116371814D01*
X77654868Y-116429024D01*
X77851000Y-116448341D01*
X77891472Y-116444354D01*
X77960115Y-116457372D01*
X78010826Y-116505436D01*
X78027502Y-116573286D01*
X78020667Y-116608711D01*
X77999090Y-116670375D01*
X77980054Y-116839325D01*
X77980054Y-116839330D01*
X77999089Y-117008279D01*
X78055247Y-117168767D01*
X78064819Y-117184000D01*
X78145704Y-117312728D01*
X78265928Y-117432952D01*
X78409891Y-117523410D01*
X78531849Y-117566084D01*
X78570376Y-117579566D01*
X78739325Y-117598602D01*
X78739328Y-117598602D01*
X78739331Y-117598602D01*
X78908279Y-117579566D01*
X78908282Y-117579565D01*
X79068765Y-117523410D01*
X79212728Y-117432952D01*
X79235880Y-117409799D01*
X79297199Y-117376316D01*
X79366890Y-117381299D01*
X79422825Y-117423170D01*
X79428552Y-117431509D01*
X79449919Y-117465515D01*
X79449921Y-117465517D01*
X79570145Y-117585741D01*
X79714108Y-117676199D01*
X79836066Y-117718873D01*
X79874593Y-117732355D01*
X80043542Y-117751391D01*
X80043545Y-117751391D01*
X80043548Y-117751391D01*
X80212496Y-117732355D01*
X80232318Y-117725419D01*
X80372982Y-117676199D01*
X80516945Y-117585741D01*
X80637169Y-117465517D01*
X80714506Y-117342436D01*
X80766841Y-117296145D01*
X80835894Y-117285497D01*
X80899743Y-117313872D01*
X80938115Y-117372262D01*
X80943500Y-117408408D01*
X80943500Y-117940232D01*
X80942969Y-117948332D01*
X80941101Y-117962521D01*
X80938405Y-117982999D01*
X80938405Y-117983003D01*
X80942507Y-118014164D01*
X80942508Y-118014169D01*
X80943500Y-118021701D01*
X80958699Y-118137151D01*
X80969710Y-118163733D01*
X80999544Y-118235757D01*
X81018200Y-118280798D01*
X81088192Y-118372013D01*
X81113387Y-118437182D01*
X81099349Y-118505627D01*
X81050535Y-118555617D01*
X80989817Y-118571500D01*
X76000943Y-118571500D01*
X75933904Y-118551815D01*
X75909914Y-118530157D01*
X75909548Y-118530524D01*
X75784400Y-118405376D01*
X75640439Y-118314919D01*
X75640438Y-118314918D01*
X75640437Y-118314918D01*
X75587075Y-118296246D01*
X75479951Y-118258761D01*
X75311003Y-118239726D01*
X75310997Y-118239726D01*
X75142047Y-118258762D01*
X74983454Y-118314256D01*
X74913676Y-118317817D01*
X74853048Y-118283088D01*
X74820821Y-118221095D01*
X74818500Y-118197214D01*
X74818500Y-113411000D01*
X76846161Y-113411000D01*
X76865468Y-113607030D01*
X76922652Y-113795538D01*
X76988922Y-113919522D01*
X77497446Y-113411000D01*
X77497446Y-113410999D01*
X76988922Y-112902476D01*
X76922652Y-113026461D01*
X76865468Y-113214969D01*
X76846161Y-113411000D01*
X74818500Y-113411000D01*
X74818500Y-103952808D01*
X74838185Y-103885769D01*
X74854819Y-103865127D01*
X75925127Y-102794819D01*
X75986450Y-102761334D01*
X76012808Y-102758500D01*
X76035393Y-102758500D01*
X76101365Y-102777506D01*
X76109813Y-102782814D01*
X76124563Y-102792082D01*
X76228898Y-102828590D01*
X76285048Y-102848238D01*
X76453997Y-102867274D01*
X76454000Y-102867274D01*
X76454003Y-102867274D01*
X76622951Y-102848238D01*
X76622954Y-102848237D01*
X76783437Y-102792082D01*
X76927400Y-102701624D01*
X77018920Y-102610103D01*
X77080239Y-102576621D01*
X77149931Y-102581605D01*
G37*
%TD.AperFunction*%
%TA.AperFunction,Conductor*%
G36*
X83369343Y-111124409D02*
G01*
X83407715Y-111182799D01*
X83413100Y-111218945D01*
X83413100Y-117788607D01*
X83393415Y-117855646D01*
X83340611Y-117901401D01*
X83271453Y-117911345D01*
X83207897Y-117882320D01*
X83201419Y-117876288D01*
X83050550Y-117725419D01*
X83021189Y-117678691D01*
X83020316Y-117676197D01*
X82991835Y-117594800D01*
X82991835Y-117594799D01*
X82901376Y-117450836D01*
X82781153Y-117330613D01*
X82637192Y-117240156D01*
X82637191Y-117240155D01*
X82637190Y-117240155D01*
X82598665Y-117226674D01*
X82476704Y-117183998D01*
X82307756Y-117164963D01*
X82307748Y-117164963D01*
X82262382Y-117170074D01*
X82193561Y-117158019D01*
X82142182Y-117110669D01*
X82124500Y-117046854D01*
X82124500Y-115539471D01*
X82144185Y-115472432D01*
X82196989Y-115426677D01*
X82207546Y-115422429D01*
X82210951Y-115421237D01*
X82210954Y-115421237D01*
X82371437Y-115365082D01*
X82515400Y-115274624D01*
X82635624Y-115154400D01*
X82726082Y-115010437D01*
X82782237Y-114849954D01*
X82782237Y-114849953D01*
X82782238Y-114849951D01*
X82801274Y-114681002D01*
X82801274Y-114680997D01*
X82782238Y-114512048D01*
X82756208Y-114437659D01*
X82726082Y-114351563D01*
X82635624Y-114207600D01*
X82515400Y-114087376D01*
X82371437Y-113996918D01*
X82332912Y-113983437D01*
X82210951Y-113940761D01*
X82042003Y-113921726D01*
X82041997Y-113921726D01*
X81873048Y-113940761D01*
X81712560Y-113996919D01*
X81568599Y-114087376D01*
X81448376Y-114207599D01*
X81357918Y-114351561D01*
X81301763Y-114512045D01*
X81301763Y-114512048D01*
X81297211Y-114552439D01*
X81270142Y-114616852D01*
X81261672Y-114626233D01*
X81146695Y-114741210D01*
X81140593Y-114746562D01*
X81112850Y-114767850D01*
X81089087Y-114798820D01*
X81032733Y-114872261D01*
X80976304Y-114913463D01*
X80906558Y-114917617D01*
X80845638Y-114883404D01*
X80838505Y-114875438D01*
X80720883Y-114732116D01*
X80568539Y-114607090D01*
X80568532Y-114607086D01*
X80394733Y-114514188D01*
X80394727Y-114514186D01*
X80289150Y-114482159D01*
X80230715Y-114443863D01*
X80202258Y-114380051D01*
X80212819Y-114310984D01*
X80259043Y-114258590D01*
X80289148Y-114244841D01*
X80394727Y-114212814D01*
X80568538Y-114119910D01*
X80720883Y-113994883D01*
X80845910Y-113842538D01*
X80938814Y-113668727D01*
X80996024Y-113480132D01*
X81015341Y-113284000D01*
X81013432Y-113264624D01*
X81026449Y-113195982D01*
X81049151Y-113164793D01*
X82715485Y-111498459D01*
X82762209Y-111469101D01*
X82879437Y-111428082D01*
X83023400Y-111337624D01*
X83143624Y-111217400D01*
X83184106Y-111152972D01*
X83236441Y-111106682D01*
X83305494Y-111096034D01*
X83369343Y-111124409D01*
G37*
%TD.AperFunction*%
%TA.AperFunction,Conductor*%
G36*
X81415619Y-100483033D02*
G01*
X81450798Y-100485338D01*
X81497308Y-100488386D01*
X81679059Y-100501385D01*
X81686700Y-100502415D01*
X81780338Y-100521041D01*
X81803020Y-100525553D01*
X81828623Y-100531122D01*
X81947266Y-100556931D01*
X81953983Y-100558795D01*
X82073037Y-100599209D01*
X82170271Y-100635476D01*
X82205341Y-100648557D01*
X82211099Y-100651043D01*
X82326552Y-100707978D01*
X82448506Y-100774570D01*
X82453234Y-100777432D01*
X82510171Y-100815476D01*
X82560249Y-100848937D01*
X82562958Y-100850854D01*
X82672252Y-100932671D01*
X82675945Y-100935665D01*
X82769933Y-101018090D01*
X82773102Y-101020869D01*
X82776048Y-101023628D01*
X82872369Y-101119949D01*
X82875126Y-101122892D01*
X82960329Y-101220048D01*
X82963332Y-101223753D01*
X83002158Y-101275617D01*
X83045143Y-101333039D01*
X83047061Y-101335749D01*
X83118562Y-101442757D01*
X83121428Y-101447491D01*
X83188021Y-101569447D01*
X83244955Y-101684899D01*
X83247441Y-101690657D01*
X83283812Y-101788168D01*
X83296796Y-101822978D01*
X83320902Y-101893992D01*
X83337197Y-101941996D01*
X83339072Y-101948752D01*
X83370446Y-102092979D01*
X83393580Y-102209280D01*
X83394615Y-102216960D01*
X83407617Y-102398750D01*
X83412967Y-102480366D01*
X83413100Y-102484423D01*
X83413100Y-104427054D01*
X83393415Y-104494093D01*
X83340611Y-104539848D01*
X83271453Y-104549792D01*
X83207897Y-104520767D01*
X83184107Y-104493027D01*
X83143625Y-104428601D01*
X83023400Y-104308376D01*
X82879439Y-104217919D01*
X82879438Y-104217918D01*
X82879437Y-104217918D01*
X82825942Y-104199199D01*
X82718950Y-104161761D01*
X82586939Y-104146887D01*
X82522525Y-104119820D01*
X82482970Y-104062225D01*
X82480833Y-103992388D01*
X82493436Y-103961667D01*
X82548954Y-103865506D01*
X81945000Y-103261552D01*
X81945000Y-102708000D01*
X82098553Y-102708000D01*
X82644999Y-103254447D01*
X82645000Y-103254446D01*
X82645000Y-102161553D01*
X82644999Y-102161552D01*
X82098553Y-102707999D01*
X82098553Y-102708000D01*
X81945000Y-102708000D01*
X81945000Y-102154446D01*
X82548953Y-101550493D01*
X82477124Y-101426078D01*
X82477123Y-101426077D01*
X82350539Y-101285490D01*
X82350536Y-101285488D01*
X82197477Y-101174282D01*
X82024644Y-101097334D01*
X81839594Y-101058000D01*
X81650406Y-101058000D01*
X81465355Y-101097334D01*
X81292518Y-101174286D01*
X81139462Y-101285488D01*
X81135444Y-101289107D01*
X81072450Y-101319333D01*
X81003115Y-101310704D01*
X80956624Y-101275617D01*
X80847883Y-101143116D01*
X80695539Y-101018090D01*
X80695532Y-101018086D01*
X80521733Y-100925188D01*
X80521727Y-100925186D01*
X80333132Y-100867976D01*
X80333129Y-100867975D01*
X80137000Y-100848659D01*
X80136999Y-100848659D01*
X80058087Y-100856430D01*
X79989441Y-100843410D01*
X79951683Y-100811950D01*
X79951599Y-100812035D01*
X79950664Y-100811100D01*
X79947559Y-100808513D01*
X79945853Y-100806289D01*
X79887051Y-100761169D01*
X79820411Y-100710034D01*
X79820410Y-100710033D01*
X79814210Y-100705276D01*
X79773008Y-100648848D01*
X79768853Y-100579102D01*
X79803066Y-100518181D01*
X79864783Y-100485429D01*
X79889697Y-100482900D01*
X81411564Y-100482900D01*
X81415619Y-100483033D01*
G37*
%TD.AperFunction*%
%TA.AperFunction,Conductor*%
G36*
X81545000Y-103261553D02*
G01*
X81016681Y-103789872D01*
X80955358Y-103823357D01*
X80885666Y-103818373D01*
X80829733Y-103776501D01*
X80805316Y-103711037D01*
X80805000Y-103702191D01*
X80805000Y-103698553D01*
X80804999Y-103698552D01*
X80288372Y-104215181D01*
X80227049Y-104248666D01*
X80200691Y-104251500D01*
X80073309Y-104251500D01*
X80006270Y-104231815D01*
X79985628Y-104215181D01*
X79274923Y-103504476D01*
X79274922Y-103504476D01*
X79208652Y-103628461D01*
X79151468Y-103816969D01*
X79132161Y-104013000D01*
X79142241Y-104115346D01*
X79129222Y-104183992D01*
X79081157Y-104234702D01*
X79018838Y-104251500D01*
X78969664Y-104251500D01*
X78902625Y-104231815D01*
X78856870Y-104179011D01*
X78846261Y-104115346D01*
X78849771Y-104079707D01*
X78856341Y-104013000D01*
X78837024Y-103816868D01*
X78779814Y-103628273D01*
X78779811Y-103628269D01*
X78779811Y-103628266D01*
X78686913Y-103454467D01*
X78686909Y-103454460D01*
X78561883Y-103302116D01*
X78409539Y-103177090D01*
X78409532Y-103177086D01*
X78235733Y-103084188D01*
X78235727Y-103084186D01*
X78130150Y-103052159D01*
X78071715Y-103013863D01*
X78043258Y-102950051D01*
X78053819Y-102880984D01*
X78100043Y-102828590D01*
X78130148Y-102814841D01*
X78235727Y-102782814D01*
X78251082Y-102774607D01*
X78387621Y-102701625D01*
X78409538Y-102689910D01*
X78499061Y-102616439D01*
X78563370Y-102589126D01*
X78618681Y-102595251D01*
X78621060Y-102596083D01*
X78621061Y-102596084D01*
X78651849Y-102606857D01*
X78781542Y-102652239D01*
X78950495Y-102671276D01*
X78950498Y-102671276D01*
X78950501Y-102671276D01*
X79051870Y-102659853D01*
X79119452Y-102652239D01*
X79279935Y-102596084D01*
X79308649Y-102578041D01*
X79375883Y-102559040D01*
X79442719Y-102579406D01*
X79453286Y-102587181D01*
X79578460Y-102689909D01*
X79578467Y-102689913D01*
X79752268Y-102782812D01*
X79752270Y-102782812D01*
X79752273Y-102782814D01*
X79858708Y-102815101D01*
X79917146Y-102853398D01*
X79945602Y-102917210D01*
X79935042Y-102986277D01*
X79888818Y-103038671D01*
X79858708Y-103052421D01*
X79752466Y-103084649D01*
X79628476Y-103150922D01*
X80137000Y-103659446D01*
X80137001Y-103659446D01*
X80633319Y-103163126D01*
X80650650Y-103153662D01*
X80521538Y-103084652D01*
X80415291Y-103052422D01*
X80356853Y-103014124D01*
X80328396Y-102950312D01*
X80338957Y-102881245D01*
X80385181Y-102828851D01*
X80415286Y-102815102D01*
X80521727Y-102782814D01*
X80662547Y-102707543D01*
X80730949Y-102693302D01*
X80796193Y-102718302D01*
X80837564Y-102774607D01*
X80845000Y-102816902D01*
X80845000Y-103050663D01*
X80825315Y-103117702D01*
X80786572Y-103151272D01*
X80820267Y-103176496D01*
X80844684Y-103241961D01*
X80844976Y-103250161D01*
X80845000Y-103250218D01*
X80847114Y-103252332D01*
X81545000Y-102554446D01*
X81545000Y-103261553D01*
G37*
%TD.AperFunction*%
%TD*%
M02*
