%TF.GenerationSoftware,KiCad,Pcbnew,7.0.9*%
%TF.CreationDate,2024-01-15T07:30:31+01:00*%
%TF.ProjectId,usb_dongle_hw,7573625f-646f-46e6-976c-655f68772e6b,rev?*%
%TF.SameCoordinates,Original*%
%TF.FileFunction,Copper,L1,Top*%
%TF.FilePolarity,Positive*%
%FSLAX46Y46*%
G04 Gerber Fmt 4.6, Leading zero omitted, Abs format (unit mm)*
G04 Created by KiCad (PCBNEW 7.0.9) date 2024-01-15 07:30:31*
%MOMM*%
%LPD*%
G01*
G04 APERTURE LIST*
G04 Aperture macros list*
%AMRoundRect*
0 Rectangle with rounded corners*
0 $1 Rounding radius*
0 $2 $3 $4 $5 $6 $7 $8 $9 X,Y pos of 4 corners*
0 Add a 4 corners polygon primitive as box body*
4,1,4,$2,$3,$4,$5,$6,$7,$8,$9,$2,$3,0*
0 Add four circle primitives for the rounded corners*
1,1,$1+$1,$2,$3*
1,1,$1+$1,$4,$5*
1,1,$1+$1,$6,$7*
1,1,$1+$1,$8,$9*
0 Add four rect primitives between the rounded corners*
20,1,$1+$1,$2,$3,$4,$5,0*
20,1,$1+$1,$4,$5,$6,$7,0*
20,1,$1+$1,$6,$7,$8,$9,0*
20,1,$1+$1,$8,$9,$2,$3,0*%
G04 Aperture macros list end*
%TA.AperFunction,SMDPad,CuDef*%
%ADD10RoundRect,0.200000X-0.275000X0.200000X-0.275000X-0.200000X0.275000X-0.200000X0.275000X0.200000X0*%
%TD*%
%TA.AperFunction,SMDPad,CuDef*%
%ADD11RoundRect,0.140000X-0.170000X0.140000X-0.170000X-0.140000X0.170000X-0.140000X0.170000X0.140000X0*%
%TD*%
%TA.AperFunction,SMDPad,CuDef*%
%ADD12RoundRect,0.225000X-0.250000X0.225000X-0.250000X-0.225000X0.250000X-0.225000X0.250000X0.225000X0*%
%TD*%
%TA.AperFunction,SMDPad,CuDef*%
%ADD13RoundRect,0.135000X0.185000X-0.135000X0.185000X0.135000X-0.185000X0.135000X-0.185000X-0.135000X0*%
%TD*%
%TA.AperFunction,SMDPad,CuDef*%
%ADD14RoundRect,0.140000X0.170000X-0.140000X0.170000X0.140000X-0.170000X0.140000X-0.170000X-0.140000X0*%
%TD*%
%TA.AperFunction,SMDPad,CuDef*%
%ADD15RoundRect,0.050000X-0.387500X-0.050000X0.387500X-0.050000X0.387500X0.050000X-0.387500X0.050000X0*%
%TD*%
%TA.AperFunction,SMDPad,CuDef*%
%ADD16RoundRect,0.050000X-0.050000X-0.387500X0.050000X-0.387500X0.050000X0.387500X-0.050000X0.387500X0*%
%TD*%
%TA.AperFunction,SMDPad,CuDef*%
%ADD17R,3.200000X3.200000*%
%TD*%
%TA.AperFunction,SMDPad,CuDef*%
%ADD18RoundRect,0.135000X-0.135000X-0.185000X0.135000X-0.185000X0.135000X0.185000X-0.135000X0.185000X0*%
%TD*%
%TA.AperFunction,SMDPad,CuDef*%
%ADD19R,1.400000X1.200000*%
%TD*%
%TA.AperFunction,SMDPad,CuDef*%
%ADD20R,0.300000X0.900000*%
%TD*%
%TA.AperFunction,ComponentPad*%
%ADD21O,0.800000X2.300000*%
%TD*%
%TA.AperFunction,SMDPad,CuDef*%
%ADD22R,0.800000X2.000000*%
%TD*%
%TA.AperFunction,SMDPad,CuDef*%
%ADD23RoundRect,0.150000X-0.512500X-0.150000X0.512500X-0.150000X0.512500X0.150000X-0.512500X0.150000X0*%
%TD*%
%TA.AperFunction,SMDPad,CuDef*%
%ADD24RoundRect,0.140000X-0.140000X-0.170000X0.140000X-0.170000X0.140000X0.170000X-0.140000X0.170000X0*%
%TD*%
%TA.AperFunction,SMDPad,CuDef*%
%ADD25R,0.900000X0.300000*%
%TD*%
%TA.AperFunction,SMDPad,CuDef*%
%ADD26R,0.250000X1.650000*%
%TD*%
%TA.AperFunction,SMDPad,CuDef*%
%ADD27RoundRect,0.218750X0.256250X-0.218750X0.256250X0.218750X-0.256250X0.218750X-0.256250X-0.218750X0*%
%TD*%
%TA.AperFunction,ViaPad*%
%ADD28C,0.508000*%
%TD*%
%TA.AperFunction,Conductor*%
%ADD29C,0.180000*%
%TD*%
%TA.AperFunction,Conductor*%
%ADD30C,0.300000*%
%TD*%
%TA.AperFunction,Conductor*%
%ADD31C,0.200000*%
%TD*%
G04 APERTURE END LIST*
D10*
%TO.P,R5,1*%
%TO.N,USB_d+*%
X79375000Y-105000000D03*
%TO.P,R5,2*%
%TO.N,/usb-d+*%
X79375000Y-106650000D03*
%TD*%
D11*
%TO.P,C8,1*%
%TO.N,+3V3*%
X77851000Y-119662000D03*
%TO.P,C8,2*%
%TO.N,GND*%
X77851000Y-120622000D03*
%TD*%
D12*
%TO.P,C16,1*%
%TO.N,+3V3*%
X79364000Y-125082000D03*
%TO.P,C16,2*%
%TO.N,GND*%
X79364000Y-126632000D03*
%TD*%
D13*
%TO.P,R1,1*%
%TO.N,+3V3*%
X80772000Y-120652000D03*
%TO.P,R1,2*%
%TO.N,Net-(U1-RUN)*%
X80772000Y-119632000D03*
%TD*%
D14*
%TO.P,C2,1*%
%TO.N,GND*%
X77343000Y-123416000D03*
%TO.P,C2,2*%
%TO.N,Net-(U1-XOUT)*%
X77343000Y-122456000D03*
%TD*%
%TO.P,C14,1*%
%TO.N,+3V3*%
X82042000Y-108938000D03*
%TO.P,C14,2*%
%TO.N,GND*%
X82042000Y-107978000D03*
%TD*%
%TO.P,C10,1*%
%TO.N,+3V3*%
X77343000Y-108938000D03*
%TO.P,C10,2*%
%TO.N,GND*%
X77343000Y-107978000D03*
%TD*%
D12*
%TO.P,C4,1*%
%TO.N,+1V1*%
X79248000Y-120002000D03*
%TO.P,C4,2*%
%TO.N,GND*%
X79248000Y-121552000D03*
%TD*%
D11*
%TO.P,C9,1*%
%TO.N,+3V3*%
X82550000Y-112042000D03*
%TO.P,C9,2*%
%TO.N,GND*%
X82550000Y-113002000D03*
%TD*%
D15*
%TO.P,U1,1,IOVDD*%
%TO.N,+3V3*%
X74156500Y-111835500D03*
%TO.P,U1,2,GPIO0*%
%TO.N,unconnected-(U1-GPIO0-Pad2)*%
X74156500Y-112235500D03*
%TO.P,U1,3,GPIO1*%
%TO.N,unconnected-(U1-GPIO1-Pad3)*%
X74156500Y-112635500D03*
%TO.P,U1,4,GPIO2*%
%TO.N,unconnected-(U1-GPIO2-Pad4)*%
X74156500Y-113035500D03*
%TO.P,U1,5,GPIO3*%
%TO.N,unconnected-(U1-GPIO3-Pad5)*%
X74156500Y-113435500D03*
%TO.P,U1,6,GPIO4*%
%TO.N,unconnected-(U1-GPIO4-Pad6)*%
X74156500Y-113835500D03*
%TO.P,U1,7,GPIO5*%
%TO.N,unconnected-(U1-GPIO5-Pad7)*%
X74156500Y-114235500D03*
%TO.P,U1,8,GPIO6*%
%TO.N,unconnected-(U1-GPIO6-Pad8)*%
X74156500Y-114635500D03*
%TO.P,U1,9,GPIO7*%
%TO.N,unconnected-(U1-GPIO7-Pad9)*%
X74156500Y-115035500D03*
%TO.P,U1,10,IOVDD*%
%TO.N,+3V3*%
X74156500Y-115435500D03*
%TO.P,U1,11,GPIO8*%
%TO.N,unconnected-(U1-GPIO8-Pad11)*%
X74156500Y-115835500D03*
%TO.P,U1,12,GPIO9*%
%TO.N,unconnected-(U1-GPIO9-Pad12)*%
X74156500Y-116235500D03*
%TO.P,U1,13,GPIO10*%
%TO.N,unconnected-(U1-GPIO10-Pad13)*%
X74156500Y-116635500D03*
%TO.P,U1,14,GPIO11*%
%TO.N,unconnected-(U1-GPIO11-Pad14)*%
X74156500Y-117035500D03*
D16*
%TO.P,U1,15,GPIO12*%
%TO.N,unconnected-(U1-GPIO12-Pad15)*%
X74994000Y-117873000D03*
%TO.P,U1,16,GPIO13*%
%TO.N,unconnected-(U1-GPIO13-Pad16)*%
X75394000Y-117873000D03*
%TO.P,U1,17,GPIO14*%
%TO.N,unconnected-(U1-GPIO14-Pad17)*%
X75794000Y-117873000D03*
%TO.P,U1,18,GPIO15*%
%TO.N,unconnected-(U1-GPIO15-Pad18)*%
X76194000Y-117873000D03*
%TO.P,U1,19,TESTEN*%
%TO.N,GND*%
X76594000Y-117873000D03*
%TO.P,U1,20,XIN*%
%TO.N,Net-(U1-XIN)*%
X76994000Y-117873000D03*
%TO.P,U1,21,XOUT*%
%TO.N,Net-(U1-XOUT)*%
X77394000Y-117873000D03*
%TO.P,U1,22,IOVDD*%
%TO.N,+3V3*%
X77794000Y-117873000D03*
%TO.P,U1,23,DVDD*%
%TO.N,+1V1*%
X78194000Y-117873000D03*
%TO.P,U1,24,SWCLK*%
%TO.N,SWCLK*%
X78594000Y-117873000D03*
%TO.P,U1,25,SWD*%
%TO.N,SWDIO*%
X78994000Y-117873000D03*
%TO.P,U1,26,RUN*%
%TO.N,Net-(U1-RUN)*%
X79394000Y-117873000D03*
%TO.P,U1,27,GPIO16*%
%TO.N,unconnected-(U1-GPIO16-Pad27)*%
X79794000Y-117873000D03*
%TO.P,U1,28,GPIO17*%
%TO.N,unconnected-(U1-GPIO17-Pad28)*%
X80194000Y-117873000D03*
D15*
%TO.P,U1,29,GPIO18*%
%TO.N,unconnected-(U1-GPIO18-Pad29)*%
X81031500Y-117035500D03*
%TO.P,U1,30,GPIO19*%
%TO.N,unconnected-(U1-GPIO19-Pad30)*%
X81031500Y-116635500D03*
%TO.P,U1,31,GPIO20*%
%TO.N,unconnected-(U1-GPIO20-Pad31)*%
X81031500Y-116235500D03*
%TO.P,U1,32,GPIO21*%
%TO.N,unconnected-(U1-GPIO21-Pad32)*%
X81031500Y-115835500D03*
%TO.P,U1,33,IOVDD*%
%TO.N,+3V3*%
X81031500Y-115435500D03*
%TO.P,U1,34,GPIO22*%
%TO.N,unconnected-(U1-GPIO22-Pad34)*%
X81031500Y-115035500D03*
%TO.P,U1,35,GPIO23*%
%TO.N,unconnected-(U1-GPIO23-Pad35)*%
X81031500Y-114635500D03*
%TO.P,U1,36,GPIO24*%
%TO.N,unconnected-(U1-GPIO24-Pad36)*%
X81031500Y-114235500D03*
%TO.P,U1,37,GPIO25*%
%TO.N,Net-(U1-GPIO25)*%
X81031500Y-113835500D03*
%TO.P,U1,38,GPIO26_ADC0*%
%TO.N,unconnected-(U1-GPIO26_ADC0-Pad38)*%
X81031500Y-113435500D03*
%TO.P,U1,39,GPIO27_ADC1*%
%TO.N,unconnected-(U1-GPIO27_ADC1-Pad39)*%
X81031500Y-113035500D03*
%TO.P,U1,40,GPIO28_ADC2*%
%TO.N,unconnected-(U1-GPIO28_ADC2-Pad40)*%
X81031500Y-112635500D03*
%TO.P,U1,41,GPIO29_ADC3*%
%TO.N,unconnected-(U1-GPIO29_ADC3-Pad41)*%
X81031500Y-112235500D03*
%TO.P,U1,42,IOVDD*%
%TO.N,+3V3*%
X81031500Y-111835500D03*
D16*
%TO.P,U1,43,ADC_AVDD*%
X80194000Y-110998000D03*
%TO.P,U1,44,VREG_IN*%
X79794000Y-110998000D03*
%TO.P,U1,45,VREG_VOUT*%
%TO.N,+1V1*%
X79394000Y-110998000D03*
%TO.P,U1,46,USB_D-*%
%TO.N,/usb-d-*%
X78994000Y-110998000D03*
%TO.P,U1,47,USB_D+*%
%TO.N,/usb-d+*%
X78594000Y-110998000D03*
%TO.P,U1,48,USB_VDD*%
%TO.N,+3V3*%
X78194000Y-110998000D03*
%TO.P,U1,49,IOVDD*%
X77794000Y-110998000D03*
%TO.P,U1,50,DVDD*%
%TO.N,+1V1*%
X77394000Y-110998000D03*
%TO.P,U1,51,QSPI_SD3*%
%TO.N,QSPI_SD3*%
X76994000Y-110998000D03*
%TO.P,U1,52,QSPI_SCLK*%
%TO.N,QSPI_SCLK*%
X76594000Y-110998000D03*
%TO.P,U1,53,QSPI_SD0*%
%TO.N,QSPI_SD0*%
X76194000Y-110998000D03*
%TO.P,U1,54,QSPI_SD2*%
%TO.N,QSPI_SD2*%
X75794000Y-110998000D03*
%TO.P,U1,55,QSPI_SD1*%
%TO.N,QSPI_SD1*%
X75394000Y-110998000D03*
%TO.P,U1,56,QSPI_SS*%
%TO.N,QSPI_CS*%
X74994000Y-110998000D03*
D17*
%TO.P,U1,57,GND*%
%TO.N,GND*%
X77594000Y-114435500D03*
%TD*%
D12*
%TO.P,C15,1*%
%TO.N,+5V*%
X73152000Y-125082000D03*
%TO.P,C15,2*%
%TO.N,GND*%
X73152000Y-126632000D03*
%TD*%
D18*
%TO.P,R3,1*%
%TO.N,QSPI_CS*%
X72515000Y-105922000D03*
%TO.P,R3,2*%
%TO.N,+3V3*%
X73535000Y-105922000D03*
%TD*%
D19*
%TO.P,Y1,1,1*%
%TO.N,Net-(U1-XOUT)*%
X75692000Y-121313000D03*
%TO.P,Y1,2,2*%
%TO.N,GND*%
X73492000Y-121313000D03*
%TO.P,Y1,3,3*%
%TO.N,Net-(U1-XIN)*%
X73492000Y-123013000D03*
%TO.P,Y1,4,4*%
%TO.N,GND*%
X75692000Y-123013000D03*
%TD*%
D14*
%TO.P,C13,1*%
%TO.N,+3V3*%
X72517000Y-111958000D03*
%TO.P,C13,2*%
%TO.N,GND*%
X72517000Y-110998000D03*
%TD*%
D20*
%TO.P,J1,A01,A01*%
%TO.N,GND*%
X74720000Y-103108000D03*
%TO.P,J1,A02,A02*%
%TO.N,unconnected-(J1-PadA02)*%
X75220000Y-103108000D03*
%TO.P,J1,A03,A03*%
%TO.N,unconnected-(J1-PadA03)*%
X75720000Y-103108000D03*
%TO.P,J1,A04,A04*%
%TO.N,+5V*%
X76220000Y-103108000D03*
%TO.P,J1,A05,A05*%
%TO.N,Net-(J1-PadA05)*%
X78720000Y-103108000D03*
%TO.P,J1,A06,A06*%
%TO.N,USB_d+*%
X79220000Y-103108000D03*
%TO.P,J1,A07,A07*%
%TO.N,USB_d-*%
X79720000Y-103108000D03*
%TO.P,J1,A12,A12*%
%TO.N,GND*%
X80220000Y-103108000D03*
%TO.P,J1,B09,B09*%
%TO.N,+5V*%
X78220000Y-103108000D03*
%TO.P,J1,B10,B10*%
%TO.N,unconnected-(J1-PadB10)*%
X77720000Y-103108000D03*
%TO.P,J1,B11,B11*%
%TO.N,unconnected-(J1-PadB11)*%
X77220000Y-103108000D03*
%TO.P,J1,B12,B12*%
%TO.N,GND*%
X76720000Y-103108000D03*
D21*
%TO.P,J1,Gnd,Gnd*%
X81745000Y-102708000D03*
D22*
X81045000Y-101908000D03*
X73895000Y-101908000D03*
D21*
X73195000Y-102708000D03*
%TD*%
D14*
%TO.P,C5,1*%
%TO.N,+1V1*%
X80899000Y-108938000D03*
%TO.P,C5,2*%
%TO.N,GND*%
X80899000Y-107978000D03*
%TD*%
D11*
%TO.P,C7,1*%
%TO.N,+3V3*%
X82550000Y-116106000D03*
%TO.P,C7,2*%
%TO.N,GND*%
X82550000Y-117066000D03*
%TD*%
D23*
%TO.P,U3,1,VIN*%
%TO.N,+5V*%
X75057000Y-125095000D03*
%TO.P,U3,2,GND*%
%TO.N,GND*%
X75057000Y-126045000D03*
%TO.P,U3,3,EN*%
%TO.N,+5V*%
X75057000Y-126995000D03*
%TO.P,U3,4,NC*%
%TO.N,unconnected-(U3-NC-Pad4)*%
X77332000Y-126995000D03*
%TO.P,U3,5,VOUT*%
%TO.N,+3V3*%
X77332000Y-125095000D03*
%TD*%
D14*
%TO.P,C12,1*%
%TO.N,+3V3*%
X72517000Y-115542000D03*
%TO.P,C12,2*%
%TO.N,GND*%
X72517000Y-114582000D03*
%TD*%
%TO.P,C6,1*%
%TO.N,+3V3*%
X78486000Y-108938000D03*
%TO.P,C6,2*%
%TO.N,GND*%
X78486000Y-107978000D03*
%TD*%
D24*
%TO.P,C11,1*%
%TO.N,+3V3*%
X74577000Y-105922000D03*
%TO.P,C11,2*%
%TO.N,GND*%
X75537000Y-105922000D03*
%TD*%
D13*
%TO.P,R4,1*%
%TO.N,GND*%
X77851000Y-106809000D03*
%TO.P,R4,2*%
%TO.N,Net-(J1-PadA05)*%
X77851000Y-105789000D03*
%TD*%
D24*
%TO.P,C1,1*%
%TO.N,GND*%
X72926000Y-119761000D03*
%TO.P,C1,2*%
%TO.N,Net-(U1-XIN)*%
X73886000Y-119761000D03*
%TD*%
D25*
%TO.P,U2,1,~{CS}*%
%TO.N,QSPI_CS*%
X72765000Y-107331000D03*
%TO.P,U2,2,DO/IO1*%
%TO.N,QSPI_SD1*%
X72765000Y-107831000D03*
%TO.P,U2,3,~{WP}/IO2*%
%TO.N,QSPI_SD2*%
X72765000Y-108331000D03*
%TO.P,U2,4,GND*%
%TO.N,GND*%
X72765000Y-108831000D03*
%TO.P,U2,5,DI/IO0*%
%TO.N,QSPI_SD0*%
X75565000Y-108831000D03*
%TO.P,U2,6,SCK*%
%TO.N,QSPI_SCLK*%
X75565000Y-108331000D03*
%TO.P,U2,7,~{HOLD}/IO3*%
%TO.N,QSPI_SD3*%
X75565000Y-107831000D03*
%TO.P,U2,8,VDD*%
%TO.N,+3V3*%
X75565000Y-107331000D03*
D26*
%TO.P,U2,9*%
%TO.N,N/C*%
X74165000Y-108081000D03*
%TD*%
D14*
%TO.P,C3,1*%
%TO.N,+1V1*%
X79629000Y-108938000D03*
%TO.P,C3,2*%
%TO.N,GND*%
X79629000Y-107978000D03*
%TD*%
D10*
%TO.P,R6,1*%
%TO.N,USB_d-*%
X81153000Y-105000000D03*
%TO.P,R6,2*%
%TO.N,/usb-d-*%
X81153000Y-106650000D03*
%TD*%
D13*
%TO.P,R2,1*%
%TO.N,Net-(D1-A)*%
X81915000Y-120652000D03*
%TO.P,R2,2*%
%TO.N,Net-(U1-GPIO25)*%
X81915000Y-119632000D03*
%TD*%
D27*
%TO.P,D1,1,K*%
%TO.N,GND*%
X81788000Y-123723500D03*
%TO.P,D1,2,A*%
%TO.N,Net-(D1-A)*%
X81788000Y-122148500D03*
%TD*%
D28*
%TO.N,GND*%
X72538063Y-109361437D03*
X76200000Y-113157000D03*
X82677000Y-113411000D03*
X75311000Y-104140000D03*
X76200000Y-115062000D03*
X71994401Y-122742918D03*
X76200000Y-113792000D03*
X82804000Y-117348000D03*
X76200000Y-114427000D03*
X76454000Y-106045000D03*
X75311000Y-116713000D03*
X76200000Y-115697000D03*
%TO.N,+1V1*%
X80264000Y-108938000D03*
X77978000Y-112014000D03*
%TO.N,+3V3*%
X78994000Y-123571000D03*
X82550000Y-110744000D03*
X75311000Y-118999000D03*
X77927200Y-108938000D03*
X76962000Y-119888000D03*
X82307753Y-117924237D03*
X76327000Y-104902000D03*
X82550000Y-104902000D03*
%TO.N,+5V*%
X76454000Y-102108000D03*
X74168000Y-127635000D03*
X76984303Y-104292324D03*
%TO.N,USB_d+*%
X78950498Y-101912002D03*
%TO.N,USB_d-*%
X79154568Y-101234570D03*
%TO.N,Net-(U1-GPIO25)*%
X82169000Y-118618000D03*
X82042000Y-114681000D03*
%TO.N,SWDIO*%
X80043545Y-116992117D03*
%TO.N,SWCLK*%
X78739328Y-116839328D03*
%TO.N,QSPI_SD3*%
X77216000Y-109728000D03*
X76581000Y-107061000D03*
%TO.N,QSPI_SD1*%
X73564500Y-106807000D03*
X73533000Y-109772402D03*
%TO.N,/usb-d+*%
X82169000Y-105791000D03*
X78850500Y-109855000D03*
%TO.N,/usb-d-*%
X78867000Y-112014000D03*
X82169000Y-106553000D03*
%TD*%
D29*
%TO.N,GND*%
X80220000Y-103108000D02*
X80220000Y-102733000D01*
X76594000Y-117873000D02*
X76594000Y-117353282D01*
X72000000Y-122748517D02*
X71994401Y-122742918D01*
X72765000Y-109134500D02*
X72765000Y-108831000D01*
X73152000Y-127388333D02*
X73942667Y-128179000D01*
X72502000Y-123903000D02*
X72000000Y-123401000D01*
X72000000Y-123401000D02*
X72000000Y-122748517D01*
X76940000Y-123013000D02*
X77343000Y-123416000D01*
X75692000Y-117094000D02*
X75311000Y-116713000D01*
X75692000Y-123013000D02*
X74802000Y-123903000D01*
X76577000Y-105922000D02*
X76454000Y-106045000D01*
X75072000Y-104140000D02*
X74720000Y-103788000D01*
X76009500Y-127990500D02*
X76009500Y-126335001D01*
X80220000Y-102733000D02*
X81045000Y-101908000D01*
X74720000Y-102733000D02*
X73895000Y-101908000D01*
X77851000Y-106809000D02*
X76964000Y-105922000D01*
X79248000Y-121552000D02*
X79207000Y-121552000D01*
X77343000Y-107978000D02*
X77343000Y-107317000D01*
X75719499Y-126045000D02*
X75057000Y-126045000D01*
X73595000Y-103108000D02*
X73195000Y-102708000D01*
X77343000Y-107317000D02*
X77851000Y-106809000D01*
X72000000Y-122705000D02*
X73392000Y-121313000D01*
X82677000Y-113129000D02*
X82550000Y-113002000D01*
X76368000Y-104140000D02*
X75311000Y-104140000D01*
X74720000Y-103788000D02*
X74720000Y-103108000D01*
X76334718Y-117094000D02*
X75692000Y-117094000D01*
X81045000Y-102008000D02*
X81745000Y-102708000D01*
X82550000Y-117094000D02*
X82804000Y-117348000D01*
X76009500Y-126335001D02*
X75719499Y-126045000D01*
X76720000Y-103108000D02*
X76720000Y-103788000D01*
X72538063Y-109361437D02*
X72765000Y-109134500D01*
X79248000Y-121552000D02*
X78781000Y-121552000D01*
X76964000Y-105922000D02*
X76577000Y-105922000D01*
X78781000Y-121552000D02*
X77851000Y-120622000D01*
X75311000Y-104140000D02*
X75072000Y-104140000D01*
X76720000Y-103788000D02*
X76368000Y-104140000D01*
X76454000Y-106045000D02*
X76331000Y-105922000D01*
X82677000Y-113411000D02*
X82677000Y-113129000D01*
X72000000Y-122737319D02*
X72000000Y-122705000D01*
X82550000Y-117066000D02*
X82550000Y-117094000D01*
X73942667Y-128179000D02*
X75821000Y-128179000D01*
X74802000Y-123903000D02*
X72502000Y-123903000D01*
X76594000Y-117353282D02*
X76334718Y-117094000D01*
X76331000Y-105922000D02*
X75537000Y-105922000D01*
X74720000Y-103108000D02*
X73595000Y-103108000D01*
X79207000Y-121552000D02*
X77343000Y-123416000D01*
X73152000Y-126632000D02*
X73152000Y-127388333D01*
X71994401Y-122742918D02*
X72000000Y-122737319D01*
X75821000Y-128179000D02*
X76009500Y-127990500D01*
X81045000Y-101908000D02*
X81045000Y-102008000D01*
X74720000Y-103108000D02*
X74720000Y-102733000D01*
X73392000Y-121313000D02*
X73492000Y-121313000D01*
X75692000Y-123013000D02*
X76940000Y-123013000D01*
%TO.N,Net-(U1-XIN)*%
X73672000Y-123013000D02*
X74482000Y-122203000D01*
X75625718Y-119761000D02*
X73886000Y-119761000D01*
X74482000Y-122203000D02*
X74482000Y-120357000D01*
X73492000Y-123013000D02*
X73672000Y-123013000D01*
X76994000Y-117873000D02*
X76994000Y-118392718D01*
X76994000Y-118392718D02*
X75625718Y-119761000D01*
X74482000Y-120357000D02*
X73886000Y-119761000D01*
%TO.N,Net-(U1-XOUT)*%
X75692000Y-120232120D02*
X77394000Y-118530120D01*
X77343000Y-122456000D02*
X76200000Y-121313000D01*
X77394000Y-118530120D02*
X77394000Y-117873000D01*
X76200000Y-121313000D02*
X75692000Y-121313000D01*
X75692000Y-121313000D02*
X75692000Y-120232120D01*
%TO.N,+1V1*%
X79629000Y-108938000D02*
X80264000Y-108938000D01*
X78194000Y-117873000D02*
X78194000Y-117353282D01*
X77394000Y-110998000D02*
X77394000Y-111517718D01*
X77890282Y-112014000D02*
X77978000Y-112014000D01*
X78194000Y-117353282D02*
X77553718Y-116713000D01*
X80264000Y-108938000D02*
X80899000Y-108938000D01*
X75311000Y-112938500D02*
X76235500Y-112014000D01*
X77553718Y-116713000D02*
X76200000Y-116713000D01*
X79235000Y-120002000D02*
X78184000Y-118951000D01*
X78184000Y-117883000D02*
X78194000Y-117873000D01*
X79248000Y-120002000D02*
X79235000Y-120002000D01*
X79394000Y-110998000D02*
X79394000Y-109173000D01*
X76235500Y-112014000D02*
X77978000Y-112014000D01*
X79394000Y-109173000D02*
X79629000Y-108938000D01*
X77394000Y-111517718D02*
X77890282Y-112014000D01*
X78184000Y-118951000D02*
X78184000Y-117883000D01*
X76200000Y-116713000D02*
X75311000Y-115824000D01*
X75311000Y-115824000D02*
X75311000Y-112938500D01*
D30*
%TO.N,+3V3*%
X82240001Y-116106000D02*
X82550000Y-116106000D01*
D29*
X79794000Y-110998000D02*
X80010000Y-110998000D01*
D30*
X74577000Y-105922000D02*
X74577000Y-105612001D01*
X82550000Y-110744000D02*
X82550000Y-112042000D01*
X77332000Y-125095000D02*
X79351000Y-125095000D01*
X73279000Y-114927500D02*
X72664500Y-115542000D01*
X80518000Y-123928000D02*
X79364000Y-125082000D01*
X82550000Y-109446000D02*
X82550000Y-110744000D01*
X72517000Y-111958000D02*
X73279000Y-112720000D01*
D29*
X77343000Y-108938000D02*
X78486000Y-108938000D01*
D30*
X74577000Y-105612001D02*
X75287001Y-104902000D01*
D29*
X80010000Y-110998000D02*
X80194000Y-110998000D01*
X82042000Y-109093000D02*
X82042000Y-108938000D01*
D30*
X82550000Y-116106000D02*
X82646000Y-116010000D01*
D29*
X75565000Y-107331000D02*
X75565000Y-106910000D01*
X77188000Y-119662000D02*
X76962000Y-119888000D01*
D30*
X75311000Y-118999000D02*
X73914000Y-118999000D01*
X72664500Y-115542000D02*
X72517000Y-115542000D01*
X82351999Y-108938000D02*
X82773000Y-108516999D01*
X82042000Y-108938000D02*
X82351999Y-108938000D01*
X75287001Y-104902000D02*
X76327000Y-104902000D01*
X82646000Y-114253500D02*
X81819000Y-113426500D01*
X82307753Y-117924237D02*
X82237237Y-117924237D01*
D29*
X77784000Y-109379000D02*
X77343000Y-108938000D01*
X82550000Y-116106000D02*
X81879500Y-115435500D01*
D30*
X81819000Y-113426500D02*
X81819000Y-112618000D01*
D29*
X77851000Y-119662000D02*
X77794000Y-119605000D01*
D30*
X72517000Y-117602000D02*
X72517000Y-115542000D01*
D29*
X72639500Y-111835500D02*
X74156500Y-111835500D01*
D30*
X81890000Y-117577000D02*
X81890000Y-116456001D01*
D29*
X82550000Y-112042000D02*
X82343500Y-111835500D01*
D30*
X82395000Y-112042000D02*
X82550000Y-112042000D01*
X82237237Y-117924237D02*
X81890000Y-117577000D01*
D29*
X80010000Y-110998000D02*
X80137000Y-110998000D01*
X78194000Y-110998000D02*
X78194000Y-109230000D01*
D30*
X81890000Y-116456001D02*
X82240001Y-116106000D01*
X82646000Y-116010000D02*
X82646000Y-114253500D01*
X82042000Y-108938000D02*
X82550000Y-109446000D01*
D29*
X81879500Y-115435500D02*
X81031500Y-115435500D01*
D30*
X82773000Y-108516999D02*
X82773000Y-105125000D01*
X73914000Y-118999000D02*
X72517000Y-117602000D01*
X73535000Y-105922000D02*
X74577000Y-105922000D01*
D29*
X82343500Y-111835500D02*
X81031500Y-111835500D01*
D30*
X82773000Y-105125000D02*
X82550000Y-104902000D01*
X79364000Y-123941000D02*
X78994000Y-123571000D01*
D29*
X72517000Y-111958000D02*
X72639500Y-111835500D01*
X77794000Y-110998000D02*
X77784000Y-110988000D01*
X72623500Y-115435500D02*
X74156500Y-115435500D01*
D30*
X79364000Y-125082000D02*
X79364000Y-123941000D01*
D29*
X77794000Y-119605000D02*
X77794000Y-117873000D01*
X75565000Y-106910000D02*
X74577000Y-105922000D01*
X72517000Y-115542000D02*
X72623500Y-115435500D01*
X78194000Y-109230000D02*
X78486000Y-108938000D01*
D30*
X81819000Y-112618000D02*
X82395000Y-112042000D01*
X73279000Y-112720000D02*
X73279000Y-114927500D01*
X80518000Y-120906000D02*
X80518000Y-123928000D01*
X79351000Y-125095000D02*
X79364000Y-125082000D01*
X80772000Y-120652000D02*
X80518000Y-120906000D01*
D29*
X77851000Y-119662000D02*
X77188000Y-119662000D01*
X77784000Y-110988000D02*
X77784000Y-109379000D01*
X80137000Y-110998000D02*
X82042000Y-109093000D01*
D30*
%TO.N,+5V*%
X74394501Y-125095000D02*
X75057000Y-125095000D01*
D29*
X77715676Y-104292324D02*
X78220000Y-103788000D01*
X78220000Y-102428000D02*
X78220000Y-103108000D01*
X76454000Y-102108000D02*
X76454000Y-102235000D01*
X78220000Y-103788000D02*
X78220000Y-103108000D01*
X76220000Y-102469000D02*
X76220000Y-103108000D01*
D30*
X75057000Y-126995000D02*
X74808000Y-126995000D01*
X74044500Y-126644999D02*
X74044500Y-125445001D01*
X74808000Y-126995000D02*
X74168000Y-127635000D01*
X73152000Y-125082000D02*
X75044000Y-125082000D01*
D29*
X77900000Y-102108000D02*
X78220000Y-102428000D01*
D30*
X74044500Y-125445001D02*
X74394501Y-125095000D01*
D29*
X76984303Y-104292324D02*
X77715676Y-104292324D01*
X76454000Y-102108000D02*
X77900000Y-102108000D01*
D30*
X75057000Y-126995000D02*
X74394501Y-126995000D01*
X75044000Y-125082000D02*
X75057000Y-125095000D01*
X74394501Y-126995000D02*
X74044500Y-126644999D01*
D29*
X76454000Y-102235000D02*
X76220000Y-102469000D01*
%TO.N,Net-(D1-A)*%
X81915000Y-120652000D02*
X81915000Y-122021500D01*
X81915000Y-122021500D02*
X81788000Y-122148500D01*
%TO.N,Net-(J1-PadA05)*%
X77851000Y-105789000D02*
X77851000Y-105029000D01*
X77851000Y-105029000D02*
X78720000Y-104160000D01*
X78720000Y-104160000D02*
X78720000Y-103108000D01*
D31*
%TO.N,USB_d+*%
X79220000Y-103108000D02*
X79220000Y-104845000D01*
X79220000Y-102334000D02*
X79220000Y-103108000D01*
X79220000Y-104845000D02*
X79375000Y-105000000D01*
X78950498Y-102064498D02*
X79220000Y-102334000D01*
X78950498Y-101912002D02*
X78950498Y-102064498D01*
%TO.N,USB_d-*%
X80912000Y-105000000D02*
X81153000Y-105000000D01*
X79720000Y-103108000D02*
X79720000Y-103808000D01*
X79154568Y-101234570D02*
X79720000Y-101800002D01*
X79720000Y-101800002D02*
X79720000Y-103108000D01*
X79720000Y-103808000D02*
X80912000Y-105000000D01*
D29*
%TO.N,Net-(U1-RUN)*%
X80452001Y-119632000D02*
X79394000Y-118573999D01*
X80772000Y-119632000D02*
X80452001Y-119632000D01*
X79394000Y-118573999D02*
X79394000Y-117873000D01*
%TO.N,Net-(U1-GPIO25)*%
X82169000Y-118618000D02*
X82169000Y-119378000D01*
X82169000Y-119378000D02*
X81915000Y-119632000D01*
X82042000Y-114681000D02*
X82042000Y-114326282D01*
X81551218Y-113835500D02*
X81031500Y-113835500D01*
X82042000Y-114326282D02*
X81551218Y-113835500D01*
%TO.N,QSPI_CS*%
X72085000Y-107331000D02*
X72765000Y-107331000D01*
X74994000Y-110998000D02*
X73406000Y-110998000D01*
X71882000Y-107534000D02*
X72085000Y-107331000D01*
X72515000Y-107081000D02*
X72765000Y-107331000D01*
X71882000Y-109474000D02*
X71882000Y-107534000D01*
X72836000Y-110428000D02*
X71882000Y-109474000D01*
X73117000Y-110676008D02*
X72868992Y-110428000D01*
X72868992Y-110428000D02*
X72836000Y-110428000D01*
X73117000Y-110709000D02*
X73117000Y-110676008D01*
X72515000Y-105922000D02*
X72515000Y-107081000D01*
X73406000Y-110998000D02*
X73117000Y-110709000D01*
%TO.N,SWDIO*%
X79355165Y-116992117D02*
X78994000Y-117353282D01*
X80043545Y-116992117D02*
X79355165Y-116992117D01*
X78994000Y-117353282D02*
X78994000Y-117873000D01*
%TO.N,SWCLK*%
X78739328Y-116839328D02*
X78739328Y-117070553D01*
X78594000Y-117215881D02*
X78594000Y-117873000D01*
X78739328Y-117070553D02*
X78594000Y-117215881D01*
%TO.N,QSPI_SD3*%
X75565000Y-107831000D02*
X76245000Y-107831000D01*
X77216000Y-109728000D02*
X76994000Y-109950000D01*
X76994000Y-109950000D02*
X76994000Y-110998000D01*
X76245000Y-107831000D02*
X76581000Y-107495000D01*
X76581000Y-107495000D02*
X76581000Y-107061000D01*
%TO.N,QSPI_SCLK*%
X76594000Y-108680000D02*
X76245000Y-108331000D01*
X76594000Y-110998000D02*
X76594000Y-108680000D01*
X75565000Y-108331000D02*
X75625000Y-108391000D01*
X76245000Y-108331000D02*
X75565000Y-108331000D01*
%TO.N,QSPI_SD0*%
X76194000Y-109460000D02*
X75565000Y-108831000D01*
X76194000Y-110998000D02*
X76194000Y-109460000D01*
%TO.N,QSPI_SD2*%
X74003931Y-109474000D02*
X73758333Y-109228402D01*
X74927120Y-109474000D02*
X74003931Y-109474000D01*
X73668402Y-109228402D02*
X73660000Y-109220000D01*
X73660000Y-109220000D02*
X73660000Y-108585000D01*
X75794000Y-110998000D02*
X75794000Y-110340880D01*
X73660000Y-108585000D02*
X73406000Y-108331000D01*
X73758333Y-109228402D02*
X73668402Y-109228402D01*
X75794000Y-110340880D02*
X74927120Y-109474000D01*
X73406000Y-108331000D02*
X72765000Y-108331000D01*
%TO.N,QSPI_SD1*%
X74958148Y-110042430D02*
X75394000Y-110478282D01*
X73445000Y-107831000D02*
X73564500Y-107711500D01*
X75394000Y-110478282D02*
X75394000Y-110998000D01*
X72765000Y-107831000D02*
X73445000Y-107831000D01*
X73564500Y-107711500D02*
X73564500Y-106807000D01*
X73533000Y-109772402D02*
X73803028Y-110042430D01*
X73803028Y-110042430D02*
X74958148Y-110042430D01*
D31*
%TO.N,/usb-d+*%
X78594000Y-110111500D02*
X78850500Y-109855000D01*
X80234000Y-105791000D02*
X82169000Y-105791000D01*
X79375000Y-106650000D02*
X80234000Y-105791000D01*
X78594000Y-110998000D02*
X78594000Y-110111500D01*
%TO.N,/usb-d-*%
X78994000Y-111887000D02*
X78994000Y-110998000D01*
X82072000Y-106650000D02*
X82169000Y-106553000D01*
X78867000Y-112014000D02*
X78994000Y-111887000D01*
X81153000Y-106650000D02*
X82072000Y-106650000D01*
%TD*%
%TA.AperFunction,Conductor*%
%TO.N,GND*%
G36*
X71619303Y-110046842D02*
G01*
X71625781Y-110052874D01*
X71848723Y-110275816D01*
X71882208Y-110337139D01*
X71877224Y-110406831D01*
X71848726Y-110451176D01*
X71837283Y-110462619D01*
X71837278Y-110462625D01*
X71754968Y-110601804D01*
X71712496Y-110748000D01*
X72269545Y-110748000D01*
X72336584Y-110767685D01*
X72357226Y-110784319D01*
X72388218Y-110815311D01*
X72393559Y-110821401D01*
X72402541Y-110833106D01*
X72414851Y-110849150D01*
X72439970Y-110868423D01*
X72445816Y-110872909D01*
X72445819Y-110872912D01*
X72445822Y-110872914D01*
X72538199Y-110943799D01*
X72542202Y-110946110D01*
X72590420Y-110996675D01*
X72603646Y-111065281D01*
X72577681Y-111130147D01*
X72520769Y-111170678D01*
X72480207Y-111177500D01*
X72282308Y-111177500D01*
X72246008Y-111180356D01*
X72246002Y-111180357D01*
X72090610Y-111225503D01*
X72090605Y-111225506D01*
X72081766Y-111230732D01*
X72018648Y-111248000D01*
X71712496Y-111248000D01*
X71754968Y-111394194D01*
X71766911Y-111414389D01*
X71784092Y-111482113D01*
X71766911Y-111540628D01*
X71754506Y-111561604D01*
X71754504Y-111561609D01*
X71709357Y-111717002D01*
X71709356Y-111717008D01*
X71706500Y-111753308D01*
X71706500Y-112162692D01*
X71709356Y-112198991D01*
X71709357Y-112198997D01*
X71754504Y-112354390D01*
X71754505Y-112354393D01*
X71836881Y-112493684D01*
X71836887Y-112493692D01*
X71951307Y-112608112D01*
X71951311Y-112608115D01*
X71951313Y-112608117D01*
X72090605Y-112690494D01*
X72116723Y-112698082D01*
X72246002Y-112735642D01*
X72246005Y-112735642D01*
X72246007Y-112735643D01*
X72258108Y-112736595D01*
X72282308Y-112738500D01*
X72282310Y-112738500D01*
X72326192Y-112738500D01*
X72393231Y-112758185D01*
X72413873Y-112774819D01*
X72592181Y-112953126D01*
X72625666Y-113014449D01*
X72628500Y-113040807D01*
X72628500Y-114606692D01*
X72608815Y-114673731D01*
X72592181Y-114694373D01*
X72561373Y-114725181D01*
X72500050Y-114758666D01*
X72473692Y-114761500D01*
X72282308Y-114761500D01*
X72246008Y-114764356D01*
X72246002Y-114764357D01*
X72090610Y-114809503D01*
X72090605Y-114809506D01*
X72081766Y-114814732D01*
X72018648Y-114832000D01*
X71712496Y-114832000D01*
X71754968Y-114978194D01*
X71766911Y-114998389D01*
X71784092Y-115066113D01*
X71766911Y-115124628D01*
X71754506Y-115145604D01*
X71754504Y-115145609D01*
X71709357Y-115301002D01*
X71709356Y-115301008D01*
X71706500Y-115337308D01*
X71706500Y-115746692D01*
X71709356Y-115782991D01*
X71709357Y-115782997D01*
X71754504Y-115938390D01*
X71754505Y-115938393D01*
X71836881Y-116077684D01*
X71840480Y-116082324D01*
X71866014Y-116147361D01*
X71866500Y-116158324D01*
X71866500Y-117516494D01*
X71864732Y-117532505D01*
X71864974Y-117532528D01*
X71864240Y-117540294D01*
X71866500Y-117612203D01*
X71866500Y-117642920D01*
X71866501Y-117642940D01*
X71867418Y-117650206D01*
X71867876Y-117656024D01*
X71869402Y-117704567D01*
X71869403Y-117704570D01*
X71875323Y-117724948D01*
X71879268Y-117743996D01*
X71881928Y-117765054D01*
X71881931Y-117765064D01*
X71899813Y-117810230D01*
X71901705Y-117815758D01*
X71915254Y-117862395D01*
X71915255Y-117862397D01*
X71926060Y-117880666D01*
X71934617Y-117898134D01*
X71940226Y-117912300D01*
X71942432Y-117917872D01*
X71970983Y-117957170D01*
X71974188Y-117962049D01*
X71998919Y-118003865D01*
X71998923Y-118003869D01*
X72013925Y-118018871D01*
X72026563Y-118033669D01*
X72039033Y-118050833D01*
X72039036Y-118050836D01*
X72039037Y-118050837D01*
X72076476Y-118081809D01*
X72080776Y-118085722D01*
X72436938Y-118441884D01*
X72741255Y-118746201D01*
X72774740Y-118807524D01*
X72769756Y-118877216D01*
X72727884Y-118933149D01*
X72688169Y-118952958D01*
X72529810Y-118998966D01*
X72529804Y-118998968D01*
X72390625Y-119081278D01*
X72390616Y-119081285D01*
X72276285Y-119195616D01*
X72276278Y-119195625D01*
X72193968Y-119334804D01*
X72193966Y-119334809D01*
X72148855Y-119490081D01*
X72148854Y-119490087D01*
X72147209Y-119510999D01*
X72147210Y-119511000D01*
X72981500Y-119511000D01*
X73048539Y-119530685D01*
X73094294Y-119583489D01*
X73105500Y-119635000D01*
X73105500Y-119887000D01*
X73085815Y-119954039D01*
X73033011Y-119999794D01*
X72981500Y-120011000D01*
X72147210Y-120011000D01*
X72148854Y-120031910D01*
X72193968Y-120187195D01*
X72276278Y-120326374D01*
X72276285Y-120326383D01*
X72311901Y-120361998D01*
X72345387Y-120423320D01*
X72340403Y-120493012D01*
X72340403Y-120493013D01*
X72298403Y-120605620D01*
X72298401Y-120605627D01*
X72292000Y-120665155D01*
X72292000Y-121063000D01*
X73618000Y-121063000D01*
X73685039Y-121082685D01*
X73730794Y-121135489D01*
X73742000Y-121187000D01*
X73742000Y-121439000D01*
X73722315Y-121506039D01*
X73669511Y-121551794D01*
X73618000Y-121563000D01*
X72292000Y-121563000D01*
X72292000Y-121960844D01*
X72298401Y-122020372D01*
X72298403Y-122020380D01*
X72335168Y-122118952D01*
X72340152Y-122188644D01*
X72335168Y-122205617D01*
X72297909Y-122305514D01*
X72297908Y-122305516D01*
X72291501Y-122365116D01*
X72291500Y-122365135D01*
X72291500Y-123660870D01*
X72291501Y-123660876D01*
X72297908Y-123720483D01*
X72348202Y-123855328D01*
X72348206Y-123855335D01*
X72434452Y-123970544D01*
X72434453Y-123970544D01*
X72434454Y-123970546D01*
X72460624Y-123990137D01*
X72524763Y-124038152D01*
X72566633Y-124094086D01*
X72571617Y-124163778D01*
X72538131Y-124225100D01*
X72515549Y-124242956D01*
X72448956Y-124284031D01*
X72329032Y-124403955D01*
X72329029Y-124403959D01*
X72240001Y-124548294D01*
X72239996Y-124548305D01*
X72186651Y-124709290D01*
X72176500Y-124808647D01*
X72176500Y-125355337D01*
X72176501Y-125355355D01*
X72186650Y-125454707D01*
X72186651Y-125454710D01*
X72239996Y-125615694D01*
X72240001Y-125615705D01*
X72329029Y-125760040D01*
X72329032Y-125760044D01*
X72338660Y-125769672D01*
X72372145Y-125830995D01*
X72367161Y-125900687D01*
X72338663Y-125945031D01*
X72329428Y-125954265D01*
X72329424Y-125954271D01*
X72240457Y-126098507D01*
X72240452Y-126098518D01*
X72187144Y-126259393D01*
X72177000Y-126358677D01*
X72177000Y-126382000D01*
X73270000Y-126382000D01*
X73337039Y-126401685D01*
X73382794Y-126454489D01*
X73394000Y-126506000D01*
X73394000Y-126559493D01*
X73392232Y-126575504D01*
X73392474Y-126575527D01*
X73391740Y-126583293D01*
X73394000Y-126655202D01*
X73394000Y-126685919D01*
X73394001Y-126685939D01*
X73394918Y-126693205D01*
X73395376Y-126699023D01*
X73396902Y-126747565D01*
X73396903Y-126747568D01*
X73397077Y-126748168D01*
X73397778Y-126753093D01*
X73398123Y-126755269D01*
X73398088Y-126755274D01*
X73402000Y-126782759D01*
X73402000Y-127606601D01*
X73405892Y-127613729D01*
X73407441Y-127628136D01*
X73407946Y-127628080D01*
X73427761Y-127803951D01*
X73466220Y-127913860D01*
X73483918Y-127964437D01*
X73574376Y-128108400D01*
X73694600Y-128228624D01*
X73699365Y-128231618D01*
X73761255Y-128270506D01*
X73807546Y-128322841D01*
X73818194Y-128391894D01*
X73789819Y-128455743D01*
X73731429Y-128494115D01*
X73695283Y-128499500D01*
X73415624Y-128499500D01*
X73411574Y-128499367D01*
X73373554Y-128496875D01*
X73329950Y-128494017D01*
X73148160Y-128481015D01*
X73140480Y-128479980D01*
X73024179Y-128456846D01*
X72879952Y-128425472D01*
X72873196Y-128423597D01*
X72841481Y-128412831D01*
X72754178Y-128383196D01*
X72719368Y-128370212D01*
X72621857Y-128333841D01*
X72616099Y-128331355D01*
X72500647Y-128274421D01*
X72378691Y-128207828D01*
X72373957Y-128204962D01*
X72266949Y-128133461D01*
X72264239Y-128131543D01*
X72224192Y-128101564D01*
X72154953Y-128049732D01*
X72151248Y-128046729D01*
X72054092Y-127961526D01*
X72051149Y-127958769D01*
X71954828Y-127862448D01*
X71952069Y-127859502D01*
X71918979Y-127821770D01*
X71866865Y-127762345D01*
X71863871Y-127758652D01*
X71782054Y-127649358D01*
X71780137Y-127646649D01*
X71767767Y-127628136D01*
X71708632Y-127539634D01*
X71705770Y-127534906D01*
X71639178Y-127412952D01*
X71582243Y-127297499D01*
X71579757Y-127291741D01*
X71566676Y-127256671D01*
X71530405Y-127159425D01*
X71489995Y-127040383D01*
X71488131Y-127033666D01*
X71456753Y-126889420D01*
X71455277Y-126882000D01*
X72177001Y-126882000D01*
X72177001Y-126905322D01*
X72187144Y-127004607D01*
X72240452Y-127165481D01*
X72240457Y-127165492D01*
X72329424Y-127309728D01*
X72329427Y-127309732D01*
X72449267Y-127429572D01*
X72449271Y-127429575D01*
X72593507Y-127518542D01*
X72593518Y-127518547D01*
X72754393Y-127571855D01*
X72853683Y-127581999D01*
X72901999Y-127581998D01*
X72902000Y-127581998D01*
X72902000Y-126882000D01*
X72177001Y-126882000D01*
X71455277Y-126882000D01*
X71450094Y-126855943D01*
X71433615Y-126773100D01*
X71432585Y-126765459D01*
X71419586Y-126583708D01*
X71416538Y-126537198D01*
X71414233Y-126502019D01*
X71414100Y-126497964D01*
X71414100Y-114332000D01*
X71712496Y-114332000D01*
X72267000Y-114332000D01*
X72267000Y-113803210D01*
X72266999Y-113803209D01*
X72246087Y-113804854D01*
X72246081Y-113804855D01*
X72090809Y-113849966D01*
X72090804Y-113849968D01*
X71951625Y-113932278D01*
X71951616Y-113932285D01*
X71837285Y-114046616D01*
X71837278Y-114046625D01*
X71754968Y-114185804D01*
X71712496Y-114332000D01*
X71414100Y-114332000D01*
X71414100Y-110140555D01*
X71433785Y-110073516D01*
X71486589Y-110027761D01*
X71555747Y-110017817D01*
X71619303Y-110046842D01*
G37*
%TD.AperFunction*%
%TA.AperFunction,Conductor*%
G36*
X83332434Y-117601178D02*
G01*
X83388367Y-117643050D01*
X83412784Y-117708514D01*
X83413100Y-117717360D01*
X83413100Y-126497975D01*
X83412967Y-126502032D01*
X83407617Y-126583648D01*
X83394615Y-126765438D01*
X83393580Y-126773118D01*
X83370446Y-126889420D01*
X83339072Y-127033646D01*
X83337197Y-127040401D01*
X83327567Y-127068772D01*
X83296808Y-127159388D01*
X83296795Y-127159425D01*
X83247441Y-127291741D01*
X83244955Y-127297499D01*
X83188021Y-127412952D01*
X83121428Y-127534907D01*
X83118561Y-127539641D01*
X83047061Y-127646649D01*
X83045143Y-127649359D01*
X82963344Y-127758631D01*
X82960323Y-127762357D01*
X82875129Y-127859502D01*
X82872355Y-127862464D01*
X82776064Y-127958755D01*
X82773102Y-127961529D01*
X82675957Y-128046723D01*
X82672231Y-128049744D01*
X82562959Y-128131543D01*
X82560249Y-128133461D01*
X82453241Y-128204961D01*
X82448507Y-128207828D01*
X82326552Y-128274421D01*
X82211099Y-128331355D01*
X82205341Y-128333841D01*
X82084556Y-128378893D01*
X82073018Y-128383197D01*
X81954001Y-128423597D01*
X81947246Y-128425472D01*
X81803020Y-128456846D01*
X81686718Y-128479980D01*
X81679038Y-128481015D01*
X81497248Y-128494017D01*
X81446182Y-128497364D01*
X81415625Y-128499367D01*
X81411576Y-128499500D01*
X74640717Y-128499500D01*
X74573678Y-128479815D01*
X74527923Y-128427011D01*
X74517979Y-128357853D01*
X74547004Y-128294297D01*
X74574745Y-128270506D01*
X74641400Y-128228624D01*
X74761624Y-128108400D01*
X74852082Y-127964437D01*
X74882136Y-127878545D01*
X74922858Y-127821770D01*
X74987810Y-127796022D01*
X74999178Y-127795500D01*
X75635196Y-127795500D01*
X75653631Y-127794049D01*
X75672069Y-127792598D01*
X75672071Y-127792597D01*
X75672073Y-127792597D01*
X75713691Y-127780505D01*
X75829898Y-127746744D01*
X75971365Y-127663081D01*
X76087581Y-127546865D01*
X76087767Y-127546549D01*
X76087977Y-127546353D01*
X76092361Y-127540702D01*
X76093272Y-127541409D01*
X76138836Y-127498866D01*
X76207577Y-127486362D01*
X76272167Y-127513006D01*
X76296355Y-127540921D01*
X76296639Y-127540702D01*
X76300679Y-127545911D01*
X76301232Y-127546548D01*
X76301419Y-127546865D01*
X76301421Y-127546867D01*
X76301423Y-127546870D01*
X76417629Y-127663076D01*
X76417633Y-127663079D01*
X76417635Y-127663081D01*
X76559102Y-127746744D01*
X76600017Y-127758631D01*
X76716926Y-127792597D01*
X76716929Y-127792597D01*
X76716931Y-127792598D01*
X76729222Y-127793565D01*
X76753804Y-127795500D01*
X76753806Y-127795500D01*
X77910196Y-127795500D01*
X77928631Y-127794049D01*
X77947069Y-127792598D01*
X77947071Y-127792597D01*
X77947073Y-127792597D01*
X77988691Y-127780505D01*
X78104898Y-127746744D01*
X78246365Y-127663081D01*
X78362581Y-127546865D01*
X78435793Y-127423068D01*
X78486860Y-127375387D01*
X78555602Y-127362883D01*
X78620191Y-127389528D01*
X78630205Y-127398510D01*
X78661267Y-127429572D01*
X78661271Y-127429575D01*
X78805507Y-127518542D01*
X78805518Y-127518547D01*
X78966393Y-127571855D01*
X79065683Y-127581999D01*
X79113999Y-127581998D01*
X79114000Y-127581998D01*
X79114000Y-126882000D01*
X79614000Y-126882000D01*
X79614000Y-127581999D01*
X79662308Y-127581999D01*
X79662322Y-127581998D01*
X79761607Y-127571855D01*
X79922481Y-127518547D01*
X79922492Y-127518542D01*
X80066728Y-127429575D01*
X80066732Y-127429572D01*
X80186572Y-127309732D01*
X80186575Y-127309728D01*
X80275542Y-127165492D01*
X80275547Y-127165481D01*
X80328855Y-127004606D01*
X80338999Y-126905322D01*
X80339000Y-126905309D01*
X80339000Y-126882000D01*
X79614000Y-126882000D01*
X79114000Y-126882000D01*
X79114000Y-126506000D01*
X79133685Y-126438961D01*
X79186489Y-126393206D01*
X79238000Y-126382000D01*
X80338999Y-126382000D01*
X80338999Y-126358692D01*
X80338998Y-126358677D01*
X80328855Y-126259392D01*
X80275547Y-126098518D01*
X80275542Y-126098507D01*
X80186575Y-125954271D01*
X80186572Y-125954267D01*
X80177339Y-125945034D01*
X80143854Y-125883711D01*
X80148838Y-125814019D01*
X80177343Y-125769668D01*
X80186968Y-125760044D01*
X80276003Y-125615697D01*
X80329349Y-125454708D01*
X80339500Y-125355345D01*
X80339499Y-125077806D01*
X80359183Y-125010768D01*
X80375813Y-124990131D01*
X80881810Y-124484134D01*
X80943131Y-124450651D01*
X81012823Y-124455635D01*
X81057170Y-124484136D01*
X81082919Y-124509885D01*
X81225922Y-124598091D01*
X81225927Y-124598093D01*
X81385416Y-124650942D01*
X81483855Y-124660999D01*
X81537999Y-124660998D01*
X81538000Y-124660998D01*
X81538000Y-123973500D01*
X82038000Y-123973500D01*
X82038000Y-124660999D01*
X82092136Y-124660999D01*
X82092152Y-124660998D01*
X82190583Y-124650943D01*
X82350072Y-124598093D01*
X82350077Y-124598091D01*
X82493080Y-124509885D01*
X82611885Y-124391080D01*
X82700091Y-124248077D01*
X82700093Y-124248072D01*
X82752942Y-124088583D01*
X82762999Y-123990150D01*
X82763000Y-123990137D01*
X82763000Y-123973500D01*
X82038000Y-123973500D01*
X81538000Y-123973500D01*
X81538000Y-123597500D01*
X81557685Y-123530461D01*
X81610489Y-123484706D01*
X81662000Y-123473500D01*
X82762999Y-123473500D01*
X82762999Y-123456864D01*
X82762998Y-123456847D01*
X82752943Y-123358416D01*
X82700093Y-123198927D01*
X82700091Y-123198922D01*
X82611885Y-123055919D01*
X82580000Y-123024034D01*
X82546515Y-122962711D01*
X82551499Y-122893019D01*
X82580000Y-122848672D01*
X82612281Y-122816391D01*
X82700549Y-122673287D01*
X82753436Y-122513685D01*
X82763500Y-122415174D01*
X82763500Y-121881826D01*
X82753436Y-121783315D01*
X82700549Y-121623713D01*
X82700545Y-121623707D01*
X82700544Y-121623704D01*
X82612283Y-121480612D01*
X82612280Y-121480608D01*
X82546383Y-121414711D01*
X82512898Y-121353388D01*
X82517882Y-121283696D01*
X82546380Y-121239352D01*
X82606135Y-121179598D01*
X82687869Y-121041393D01*
X82732665Y-120887204D01*
X82735500Y-120851181D01*
X82735499Y-120452820D01*
X82732665Y-120416796D01*
X82687869Y-120262607D01*
X82653869Y-120205117D01*
X82636688Y-120137398D01*
X82653869Y-120078882D01*
X82687869Y-120021393D01*
X82690889Y-120011000D01*
X82732664Y-119867208D01*
X82732665Y-119867202D01*
X82735500Y-119831181D01*
X82735499Y-119578064D01*
X82743027Y-119540224D01*
X82742197Y-119540002D01*
X82744301Y-119532150D01*
X82745070Y-119526310D01*
X82759500Y-119416701D01*
X82759500Y-119416693D01*
X82764594Y-119378000D01*
X82760030Y-119343337D01*
X82759500Y-119335239D01*
X82759500Y-119132095D01*
X82778507Y-119066122D01*
X82853080Y-118947440D01*
X82853079Y-118947440D01*
X82853082Y-118947437D01*
X82909237Y-118786954D01*
X82909237Y-118786953D01*
X82909238Y-118786951D01*
X82928274Y-118618002D01*
X82928274Y-118617997D01*
X82908458Y-118442126D01*
X82910600Y-118441884D01*
X82914237Y-118382498D01*
X82925862Y-118358669D01*
X82939293Y-118337294D01*
X82991835Y-118253674D01*
X83047990Y-118093191D01*
X83047990Y-118093190D01*
X83047991Y-118093188D01*
X83067027Y-117924239D01*
X83067027Y-117924235D01*
X83063064Y-117889065D01*
X83057007Y-117835312D01*
X83069061Y-117766492D01*
X83110234Y-117721812D01*
X83109215Y-117720499D01*
X83115383Y-117715714D01*
X83201419Y-117629679D01*
X83262742Y-117596194D01*
X83332434Y-117601178D01*
G37*
%TD.AperFunction*%
%TA.AperFunction,Conductor*%
G36*
X76370852Y-125735129D02*
G01*
X76410512Y-125759530D01*
X76411469Y-125758298D01*
X76417632Y-125763078D01*
X76417635Y-125763081D01*
X76559102Y-125846744D01*
X76600724Y-125858836D01*
X76716926Y-125892597D01*
X76716929Y-125892597D01*
X76716931Y-125892598D01*
X76729222Y-125893565D01*
X76753804Y-125895500D01*
X76753806Y-125895500D01*
X77910196Y-125895500D01*
X77928631Y-125894049D01*
X77947069Y-125892598D01*
X77947071Y-125892597D01*
X77947073Y-125892597D01*
X77990541Y-125879968D01*
X78104898Y-125846744D01*
X78208405Y-125785529D01*
X78246895Y-125762768D01*
X78310016Y-125745500D01*
X78450833Y-125745500D01*
X78517872Y-125765185D01*
X78563627Y-125817989D01*
X78573571Y-125887147D01*
X78545610Y-125948372D01*
X78545905Y-125948605D01*
X78544956Y-125949805D01*
X78544546Y-125950703D01*
X78542556Y-125952839D01*
X78541424Y-125954271D01*
X78452457Y-126098507D01*
X78452453Y-126098516D01*
X78403795Y-126245355D01*
X78364022Y-126302799D01*
X78299506Y-126329622D01*
X78230730Y-126317307D01*
X78222968Y-126313082D01*
X78132184Y-126259393D01*
X78104898Y-126243256D01*
X78104897Y-126243255D01*
X78104896Y-126243255D01*
X78104893Y-126243254D01*
X77947073Y-126197402D01*
X77947067Y-126197401D01*
X77910196Y-126194500D01*
X77910194Y-126194500D01*
X76753806Y-126194500D01*
X76753804Y-126194500D01*
X76716932Y-126197401D01*
X76716926Y-126197402D01*
X76559106Y-126243254D01*
X76559103Y-126243255D01*
X76417637Y-126326917D01*
X76411469Y-126331702D01*
X76410164Y-126330019D01*
X76358454Y-126358246D01*
X76288763Y-126353251D01*
X76241058Y-126321247D01*
X76216796Y-126295000D01*
X75951315Y-126295000D01*
X75888194Y-126277732D01*
X75857184Y-126259393D01*
X75829898Y-126243256D01*
X75829897Y-126243255D01*
X75829896Y-126243255D01*
X75829893Y-126243254D01*
X75672073Y-126197402D01*
X75672067Y-126197401D01*
X75635196Y-126194500D01*
X75635194Y-126194500D01*
X74931000Y-126194500D01*
X74863961Y-126174815D01*
X74818206Y-126122011D01*
X74807000Y-126070500D01*
X74807000Y-126019500D01*
X74826685Y-125952461D01*
X74879489Y-125906706D01*
X74931000Y-125895500D01*
X75635196Y-125895500D01*
X75653631Y-125894049D01*
X75672069Y-125892598D01*
X75672071Y-125892597D01*
X75672073Y-125892597D01*
X75715541Y-125879968D01*
X75829898Y-125846744D01*
X75888194Y-125812268D01*
X75951315Y-125795000D01*
X76216794Y-125795000D01*
X76241057Y-125768752D01*
X76301018Y-125732885D01*
X76370852Y-125735129D01*
G37*
%TD.AperFunction*%
%TA.AperFunction,Conductor*%
G36*
X74651842Y-123984516D02*
G01*
X74666727Y-123994082D01*
X74749910Y-124056352D01*
X74757696Y-124060604D01*
X74756289Y-124063179D01*
X74800386Y-124096186D01*
X74824805Y-124161650D01*
X74809955Y-124229923D01*
X74760552Y-124279330D01*
X74701121Y-124294500D01*
X74484309Y-124294500D01*
X74417270Y-124274815D01*
X74371515Y-124222011D01*
X74361571Y-124152853D01*
X74390596Y-124089297D01*
X74427848Y-124063432D01*
X74426546Y-124061047D01*
X74434325Y-124056798D01*
X74434331Y-124056796D01*
X74518105Y-123994082D01*
X74583569Y-123969665D01*
X74651842Y-123984516D01*
G37*
%TD.AperFunction*%
%TA.AperFunction,Conductor*%
G36*
X78044039Y-120462185D02*
G01*
X78089794Y-120514989D01*
X78101000Y-120566500D01*
X78101000Y-121400789D01*
X78121908Y-121399145D01*
X78121917Y-121399143D01*
X78233000Y-121366870D01*
X78244504Y-121351549D01*
X78300497Y-121309757D01*
X78343665Y-121302000D01*
X79374000Y-121302000D01*
X79441039Y-121321685D01*
X79486794Y-121374489D01*
X79498000Y-121426000D01*
X79498000Y-122501999D01*
X79546308Y-122501999D01*
X79546322Y-122501998D01*
X79645607Y-122491855D01*
X79704496Y-122472342D01*
X79774324Y-122469940D01*
X79834366Y-122505672D01*
X79865559Y-122568192D01*
X79867500Y-122590048D01*
X79867500Y-123112606D01*
X79847815Y-123179645D01*
X79795011Y-123225400D01*
X79725853Y-123235344D01*
X79662297Y-123206319D01*
X79638506Y-123178578D01*
X79597053Y-123112606D01*
X79587624Y-123097600D01*
X79467400Y-122977376D01*
X79323437Y-122886918D01*
X79284704Y-122873365D01*
X79162951Y-122830761D01*
X78994003Y-122811726D01*
X78993997Y-122811726D01*
X78825048Y-122830761D01*
X78664560Y-122886919D01*
X78520599Y-122977376D01*
X78400376Y-123097599D01*
X78400374Y-123097602D01*
X78360858Y-123160491D01*
X78308523Y-123206782D01*
X78239470Y-123217429D01*
X78175621Y-123189054D01*
X78137250Y-123130663D01*
X78136788Y-123129112D01*
X78105031Y-123019804D01*
X78093090Y-122999613D01*
X78075906Y-122931889D01*
X78093089Y-122873369D01*
X78105494Y-122852395D01*
X78150643Y-122696993D01*
X78153500Y-122660690D01*
X78153500Y-122251310D01*
X78152048Y-122232862D01*
X78166412Y-122164486D01*
X78215463Y-122114729D01*
X78283628Y-122099390D01*
X78349265Y-122123338D01*
X78381204Y-122158037D01*
X78425424Y-122229728D01*
X78425427Y-122229732D01*
X78545267Y-122349572D01*
X78545271Y-122349575D01*
X78689507Y-122438542D01*
X78689518Y-122438547D01*
X78850393Y-122491855D01*
X78949683Y-122501999D01*
X78997999Y-122501998D01*
X78998000Y-122501998D01*
X78998000Y-121802000D01*
X78273001Y-121802000D01*
X78273001Y-121825322D01*
X78279514Y-121889072D01*
X78266744Y-121957765D01*
X78218864Y-122008650D01*
X78151074Y-122025570D01*
X78084897Y-122003154D01*
X78049424Y-121964795D01*
X78023119Y-121920316D01*
X78023112Y-121920307D01*
X77908692Y-121805887D01*
X77908684Y-121805881D01*
X77769393Y-121723505D01*
X77769390Y-121723504D01*
X77613997Y-121678357D01*
X77613991Y-121678356D01*
X77577692Y-121675500D01*
X77577690Y-121675500D01*
X77448955Y-121675500D01*
X77381916Y-121655815D01*
X77361274Y-121639181D01*
X77265522Y-121543429D01*
X77232037Y-121482106D01*
X77237021Y-121412414D01*
X77278893Y-121356481D01*
X77344357Y-121332064D01*
X77412630Y-121346916D01*
X77416325Y-121349016D01*
X77424806Y-121354032D01*
X77580089Y-121399145D01*
X77601000Y-121400789D01*
X77601000Y-120566500D01*
X77620685Y-120499461D01*
X77673489Y-120453706D01*
X77725000Y-120442500D01*
X77977000Y-120442500D01*
X78044039Y-120462185D01*
G37*
%TD.AperFunction*%
%TA.AperFunction,Conductor*%
G36*
X80033854Y-111938201D02*
G01*
X80085579Y-111985172D01*
X80103698Y-112052652D01*
X80102848Y-112064549D01*
X80098452Y-112101160D01*
X80093500Y-112142398D01*
X80093500Y-112328602D01*
X80099222Y-112376254D01*
X80104561Y-112420717D01*
X80104561Y-112450283D01*
X80100409Y-112484861D01*
X80093500Y-112542398D01*
X80093500Y-112728602D01*
X80099011Y-112774494D01*
X80104561Y-112820717D01*
X80104561Y-112850283D01*
X80100099Y-112887446D01*
X80093500Y-112942398D01*
X80093500Y-113128602D01*
X80096917Y-113157054D01*
X80104561Y-113220717D01*
X80104561Y-113250283D01*
X80098718Y-113298940D01*
X80093500Y-113342398D01*
X80093500Y-113528602D01*
X80097952Y-113565678D01*
X80104561Y-113620717D01*
X80104561Y-113650283D01*
X80101345Y-113677067D01*
X80093500Y-113742398D01*
X80093500Y-113928602D01*
X80095130Y-113942174D01*
X80104561Y-114020717D01*
X80104561Y-114050283D01*
X80099739Y-114090442D01*
X80093500Y-114142398D01*
X80093500Y-114328602D01*
X80099222Y-114376254D01*
X80104561Y-114420717D01*
X80104561Y-114450283D01*
X80098718Y-114498940D01*
X80093500Y-114542398D01*
X80093500Y-114728602D01*
X80097451Y-114761500D01*
X80104561Y-114820717D01*
X80104561Y-114850283D01*
X80099566Y-114891883D01*
X80093500Y-114942398D01*
X80093500Y-115128602D01*
X80099222Y-115176254D01*
X80104561Y-115220717D01*
X80104561Y-115250283D01*
X80098718Y-115298940D01*
X80093500Y-115342398D01*
X80093500Y-115528602D01*
X80099222Y-115576254D01*
X80104561Y-115620717D01*
X80104561Y-115650283D01*
X80098718Y-115698940D01*
X80093500Y-115742398D01*
X80093500Y-115928602D01*
X80099222Y-115976254D01*
X80104561Y-116020717D01*
X80104561Y-116050284D01*
X80094877Y-116130930D01*
X80067340Y-116195144D01*
X80009457Y-116234277D01*
X79985645Y-116239366D01*
X79874590Y-116251879D01*
X79874588Y-116251879D01*
X79853326Y-116259319D01*
X79783547Y-116262878D01*
X79722921Y-116228147D01*
X79690696Y-116166152D01*
X79689087Y-116129017D01*
X79693999Y-116083336D01*
X79694000Y-116083327D01*
X79694000Y-114685500D01*
X77468000Y-114685500D01*
X77400961Y-114665815D01*
X77355206Y-114613011D01*
X77344000Y-114561500D01*
X77344000Y-114309500D01*
X77363685Y-114242461D01*
X77416489Y-114196706D01*
X77468000Y-114185500D01*
X79694000Y-114185500D01*
X79694000Y-112787672D01*
X79693999Y-112787655D01*
X79687598Y-112728127D01*
X79687596Y-112728120D01*
X79637354Y-112593413D01*
X79637350Y-112593406D01*
X79556093Y-112484861D01*
X79531675Y-112419397D01*
X79546526Y-112351124D01*
X79550368Y-112344574D01*
X79551080Y-112343440D01*
X79551079Y-112343440D01*
X79551082Y-112343437D01*
X79607237Y-112182954D01*
X79607237Y-112182953D01*
X79607238Y-112182951D01*
X79622656Y-112046116D01*
X79649723Y-111981702D01*
X79707318Y-111942147D01*
X79745876Y-111936000D01*
X79887101Y-111936000D01*
X79887102Y-111936000D01*
X79964949Y-111926651D01*
X80033854Y-111938201D01*
G37*
%TD.AperFunction*%
%TA.AperFunction,Conductor*%
G36*
X82065539Y-107747685D02*
G01*
X82111294Y-107800489D01*
X82122500Y-107852000D01*
X82122500Y-108033500D01*
X82102815Y-108100539D01*
X82050011Y-108146294D01*
X81998500Y-108157500D01*
X81807308Y-108157500D01*
X81771008Y-108160356D01*
X81771002Y-108160357D01*
X81615610Y-108205503D01*
X81615605Y-108205506D01*
X81606766Y-108210732D01*
X81543648Y-108228000D01*
X81397352Y-108228000D01*
X81334233Y-108210732D01*
X81325395Y-108205506D01*
X81325393Y-108205505D01*
X81325389Y-108205503D01*
X81169997Y-108160357D01*
X81169991Y-108160356D01*
X81133692Y-108157500D01*
X81133690Y-108157500D01*
X80664310Y-108157500D01*
X80664308Y-108157500D01*
X80628008Y-108160356D01*
X80628002Y-108160357D01*
X80500944Y-108197272D01*
X80438755Y-108199087D01*
X80432949Y-108197761D01*
X80264003Y-108178726D01*
X80263997Y-108178726D01*
X80095041Y-108197762D01*
X80089234Y-108199088D01*
X80027057Y-108197272D01*
X79899991Y-108160356D01*
X79863692Y-108157500D01*
X79863690Y-108157500D01*
X79394310Y-108157500D01*
X79394308Y-108157500D01*
X79358008Y-108160356D01*
X79358002Y-108160357D01*
X79202610Y-108205503D01*
X79202605Y-108205506D01*
X79193766Y-108210732D01*
X79130648Y-108228000D01*
X78984352Y-108228000D01*
X78921233Y-108210732D01*
X78912395Y-108205506D01*
X78912393Y-108205505D01*
X78912389Y-108205503D01*
X78756997Y-108160357D01*
X78756991Y-108160356D01*
X78720692Y-108157500D01*
X78720690Y-108157500D01*
X78251310Y-108157500D01*
X78251308Y-108157500D01*
X78215008Y-108160356D01*
X78215002Y-108160357D01*
X78112847Y-108190037D01*
X78064368Y-108194181D01*
X77927203Y-108178726D01*
X77927197Y-108178726D01*
X77771730Y-108196243D01*
X77723251Y-108192099D01*
X77613997Y-108160357D01*
X77613991Y-108160356D01*
X77577692Y-108157500D01*
X77577690Y-108157500D01*
X77217000Y-108157500D01*
X77149961Y-108137815D01*
X77104206Y-108085011D01*
X77093000Y-108033500D01*
X77093000Y-107852000D01*
X77112685Y-107784961D01*
X77165489Y-107739206D01*
X77217000Y-107728000D01*
X81998500Y-107728000D01*
X82065539Y-107747685D01*
G37*
%TD.AperFunction*%
%TA.AperFunction,Conductor*%
G36*
X78606891Y-100502585D02*
G01*
X78652646Y-100555389D01*
X78662590Y-100624547D01*
X78633565Y-100688103D01*
X78627533Y-100694581D01*
X78560944Y-100761169D01*
X78470487Y-100905130D01*
X78414329Y-101065618D01*
X78395294Y-101234567D01*
X78395294Y-101234571D01*
X78405378Y-101324070D01*
X78393324Y-101392892D01*
X78369842Y-101425633D01*
X78356874Y-101438601D01*
X78303148Y-101524104D01*
X78250813Y-101570395D01*
X78181759Y-101581042D01*
X78150702Y-101572692D01*
X78054151Y-101532699D01*
X78054149Y-101532698D01*
X77931169Y-101516508D01*
X77931164Y-101516507D01*
X77900004Y-101512405D01*
X77899999Y-101512405D01*
X77886607Y-101514168D01*
X77865330Y-101516969D01*
X77857232Y-101517500D01*
X76968096Y-101517500D01*
X76902124Y-101498494D01*
X76783439Y-101423919D01*
X76783438Y-101423918D01*
X76783437Y-101423918D01*
X76744912Y-101410437D01*
X76622951Y-101367761D01*
X76454003Y-101348726D01*
X76453997Y-101348726D01*
X76285048Y-101367761D01*
X76124560Y-101423919D01*
X75980599Y-101514376D01*
X75860376Y-101634599D01*
X75769919Y-101778560D01*
X75713761Y-101939049D01*
X75701555Y-102047384D01*
X75674488Y-102111798D01*
X75616893Y-102151353D01*
X75578337Y-102157500D01*
X75522132Y-102157500D01*
X75522118Y-102157501D01*
X75483253Y-102161679D01*
X75456748Y-102161679D01*
X75417874Y-102157500D01*
X75022132Y-102157500D01*
X75022117Y-102157501D01*
X74980904Y-102161931D01*
X74954402Y-102161931D01*
X74917834Y-102158000D01*
X74914520Y-102157823D01*
X74914529Y-102157645D01*
X74914528Y-102157645D01*
X74914531Y-102157616D01*
X74914579Y-102156702D01*
X74851961Y-102138315D01*
X74806206Y-102085511D01*
X74795000Y-102034000D01*
X74795000Y-101361553D01*
X74794999Y-101361552D01*
X73982680Y-102173871D01*
X73921357Y-102207356D01*
X73851665Y-102202372D01*
X73807318Y-102173871D01*
X72991319Y-101357872D01*
X72957834Y-101296549D01*
X72955000Y-101270191D01*
X72955000Y-101088907D01*
X72954999Y-101088906D01*
X72915354Y-101097334D01*
X72742518Y-101174286D01*
X72589464Y-101285487D01*
X72462873Y-101426081D01*
X72391044Y-101550492D01*
X72391045Y-101550493D01*
X72995000Y-102154447D01*
X72995000Y-103261552D01*
X72391045Y-103865505D01*
X72462874Y-103989920D01*
X72589460Y-104130509D01*
X72589463Y-104130511D01*
X72742522Y-104241717D01*
X72915355Y-104318665D01*
X73100406Y-104358000D01*
X73289594Y-104358000D01*
X73474644Y-104318665D01*
X73647481Y-104241713D01*
X73800535Y-104130512D01*
X73927123Y-103989922D01*
X73927127Y-103989917D01*
X73981882Y-103895076D01*
X74007246Y-103870890D01*
X73999108Y-103865660D01*
X73395000Y-103261552D01*
X73395000Y-102554447D01*
X74098681Y-103258128D01*
X74132166Y-103319451D01*
X74135000Y-103345809D01*
X74135000Y-103480866D01*
X74357818Y-103258048D01*
X74419141Y-103224563D01*
X74488833Y-103229547D01*
X74544767Y-103271418D01*
X74569184Y-103336883D01*
X74569500Y-103345729D01*
X74569500Y-103419268D01*
X74549815Y-103486307D01*
X74533181Y-103506949D01*
X74174470Y-103865660D01*
X74172751Y-103866598D01*
X74188536Y-103882762D01*
X74212812Y-103915190D01*
X74327906Y-104001350D01*
X74327913Y-104001354D01*
X74462620Y-104051596D01*
X74462627Y-104051598D01*
X74522155Y-104057999D01*
X74522172Y-104058000D01*
X74917819Y-104058000D01*
X74917833Y-104057999D01*
X74954395Y-104054068D01*
X74980895Y-104054067D01*
X75008289Y-104057012D01*
X75072835Y-104083747D01*
X75112685Y-104141139D01*
X75115180Y-104210964D01*
X75079529Y-104271053D01*
X75033719Y-104297055D01*
X75033763Y-104297157D01*
X75032828Y-104297561D01*
X75029637Y-104299373D01*
X75026607Y-104300253D01*
X75026601Y-104300256D01*
X75008328Y-104311062D01*
X74990862Y-104319619D01*
X74971129Y-104327432D01*
X74931831Y-104355983D01*
X74926954Y-104359186D01*
X74913282Y-104367272D01*
X74885133Y-104383920D01*
X74870127Y-104398926D01*
X74855337Y-104411558D01*
X74838168Y-104424032D01*
X74838166Y-104424034D01*
X74807195Y-104461470D01*
X74803263Y-104465791D01*
X74177483Y-105091570D01*
X74164910Y-105101644D01*
X74165065Y-105101831D01*
X74159058Y-105106799D01*
X74117715Y-105150826D01*
X74057474Y-105186221D01*
X73987660Y-105183427D01*
X73964204Y-105172675D01*
X73924393Y-105149131D01*
X73924388Y-105149129D01*
X73770208Y-105104335D01*
X73770202Y-105104334D01*
X73734183Y-105101500D01*
X73734181Y-105101500D01*
X73468607Y-105101500D01*
X73335819Y-105101501D01*
X73299794Y-105104335D01*
X73145611Y-105149129D01*
X73145604Y-105149132D01*
X73088119Y-105183128D01*
X73020395Y-105200309D01*
X72961881Y-105183128D01*
X72904395Y-105149132D01*
X72904388Y-105149129D01*
X72750208Y-105104335D01*
X72750202Y-105104334D01*
X72714183Y-105101500D01*
X72714181Y-105101500D01*
X72448607Y-105101500D01*
X72315819Y-105101501D01*
X72279794Y-105104335D01*
X72125611Y-105149129D01*
X72125606Y-105149131D01*
X71987404Y-105230863D01*
X71987396Y-105230869D01*
X71873869Y-105344396D01*
X71873863Y-105344404D01*
X71792131Y-105482606D01*
X71792129Y-105482611D01*
X71747335Y-105636791D01*
X71747334Y-105636797D01*
X71744500Y-105672817D01*
X71744501Y-106171181D01*
X71747335Y-106207205D01*
X71792129Y-106361388D01*
X71792131Y-106361393D01*
X71873863Y-106499595D01*
X71873868Y-106499602D01*
X71888179Y-106513912D01*
X71921666Y-106575234D01*
X71924500Y-106601595D01*
X71924500Y-106675474D01*
X71904815Y-106742513D01*
X71852011Y-106788268D01*
X71847954Y-106790034D01*
X71787205Y-106815197D01*
X71787201Y-106815200D01*
X71696781Y-106884582D01*
X71696776Y-106884586D01*
X71694819Y-106886088D01*
X71694816Y-106886090D01*
X71691412Y-106888702D01*
X71663852Y-106909848D01*
X71642566Y-106937589D01*
X71637217Y-106943689D01*
X71625786Y-106955120D01*
X71564465Y-106988609D01*
X71494773Y-106983628D01*
X71438837Y-106941760D01*
X71414416Y-106876297D01*
X71414100Y-106867444D01*
X71414100Y-102484435D01*
X71414233Y-102480380D01*
X71415993Y-102453503D01*
X71419589Y-102398644D01*
X71432586Y-102216936D01*
X71433614Y-102209303D01*
X71443113Y-102161552D01*
X72295000Y-102161552D01*
X72295000Y-103254447D01*
X72841447Y-102708000D01*
X72841447Y-102707999D01*
X72295000Y-102161552D01*
X71443113Y-102161552D01*
X71456753Y-102092979D01*
X71457718Y-102088541D01*
X71488133Y-101948723D01*
X71489992Y-101942025D01*
X71530415Y-101822943D01*
X71579759Y-101690651D01*
X71582233Y-101684920D01*
X71639183Y-101569436D01*
X71705779Y-101447476D01*
X71708619Y-101442784D01*
X71780163Y-101335711D01*
X71782028Y-101333076D01*
X71863891Y-101223721D01*
X71866844Y-101220078D01*
X71952103Y-101122859D01*
X71954798Y-101119981D01*
X72051181Y-101023598D01*
X72054059Y-101020903D01*
X72151278Y-100935644D01*
X72154921Y-100932691D01*
X72264276Y-100850828D01*
X72266911Y-100848963D01*
X72373984Y-100777419D01*
X72378676Y-100774579D01*
X72500636Y-100707983D01*
X72616120Y-100651033D01*
X72621851Y-100648559D01*
X72754143Y-100599215D01*
X72873234Y-100558789D01*
X72879921Y-100556934D01*
X72889146Y-100554927D01*
X72958832Y-100559908D01*
X73014767Y-100601777D01*
X73039187Y-100667241D01*
X73036527Y-100685742D01*
X73039371Y-100698818D01*
X73895000Y-101554447D01*
X73895001Y-101554447D01*
X74750627Y-100698819D01*
X74735254Y-100657602D01*
X74736573Y-100657109D01*
X74723728Y-100598051D01*
X74748147Y-100532587D01*
X74804081Y-100490717D01*
X74847412Y-100482900D01*
X78539852Y-100482900D01*
X78606891Y-100502585D01*
G37*
%TD.AperFunction*%
%TA.AperFunction,Conductor*%
G36*
X76951544Y-105446989D02*
G01*
X77007479Y-105488860D01*
X77031897Y-105554323D01*
X77031831Y-105572897D01*
X77030500Y-105589815D01*
X77030500Y-105589817D01*
X77030501Y-105988181D01*
X77033335Y-106024205D01*
X77078129Y-106178388D01*
X77078130Y-106178391D01*
X77103788Y-106221777D01*
X77120969Y-106289501D01*
X77098809Y-106355764D01*
X77044343Y-106399526D01*
X76974863Y-106406895D01*
X76931083Y-106389890D01*
X76910437Y-106376918D01*
X76749951Y-106320761D01*
X76581003Y-106301726D01*
X76580996Y-106301726D01*
X76452405Y-106316214D01*
X76383583Y-106304159D01*
X76332204Y-106256810D01*
X76314580Y-106189200D01*
X76314904Y-106183265D01*
X76315790Y-106172000D01*
X75713455Y-106172000D01*
X75646416Y-106152315D01*
X75625774Y-106135681D01*
X75393819Y-105903726D01*
X75360334Y-105842403D01*
X75357500Y-105816045D01*
X75357500Y-105802809D01*
X75377185Y-105735770D01*
X75393819Y-105715128D01*
X75400628Y-105708319D01*
X75461951Y-105674834D01*
X75488309Y-105672000D01*
X76333216Y-105672000D01*
X76354188Y-105659454D01*
X76371398Y-105656271D01*
X76432302Y-105649409D01*
X76495950Y-105642238D01*
X76495952Y-105642237D01*
X76495954Y-105642237D01*
X76656437Y-105586082D01*
X76800400Y-105495624D01*
X76820532Y-105475491D01*
X76881852Y-105442006D01*
X76951544Y-105446989D01*
G37*
%TD.AperFunction*%
%TA.AperFunction,Conductor*%
G36*
X80159627Y-100502585D02*
G01*
X80205382Y-100555389D01*
X80215326Y-100624547D01*
X80204370Y-100657463D01*
X80204746Y-100657604D01*
X80189371Y-100698818D01*
X81045000Y-101554447D01*
X81045001Y-101554447D01*
X81900627Y-100698819D01*
X81903142Y-100687259D01*
X81936626Y-100625936D01*
X81997949Y-100592450D01*
X82064161Y-100596196D01*
X82073045Y-100599212D01*
X82176648Y-100637854D01*
X82205341Y-100648557D01*
X82211099Y-100651043D01*
X82326552Y-100707978D01*
X82448506Y-100774570D01*
X82453234Y-100777432D01*
X82510171Y-100815476D01*
X82560249Y-100848937D01*
X82562958Y-100850854D01*
X82672252Y-100932671D01*
X82675945Y-100935665D01*
X82773102Y-101020869D01*
X82776048Y-101023628D01*
X82872369Y-101119949D01*
X82875126Y-101122892D01*
X82960329Y-101220048D01*
X82963332Y-101223753D01*
X82998096Y-101270191D01*
X83045143Y-101333039D01*
X83047061Y-101335749D01*
X83118562Y-101442757D01*
X83121428Y-101447491D01*
X83188021Y-101569447D01*
X83244955Y-101684899D01*
X83247441Y-101690657D01*
X83280229Y-101778560D01*
X83296796Y-101822978D01*
X83301889Y-101837981D01*
X83337197Y-101941996D01*
X83339072Y-101948752D01*
X83370446Y-102092979D01*
X83393580Y-102209280D01*
X83394615Y-102216960D01*
X83407617Y-102398750D01*
X83412967Y-102480366D01*
X83413100Y-102484423D01*
X83413100Y-104427054D01*
X83393415Y-104494093D01*
X83340611Y-104539848D01*
X83271453Y-104549792D01*
X83207897Y-104520767D01*
X83184107Y-104493027D01*
X83143625Y-104428601D01*
X83023400Y-104308376D01*
X82879439Y-104217919D01*
X82879438Y-104217918D01*
X82879437Y-104217918D01*
X82825942Y-104199199D01*
X82718950Y-104161761D01*
X82586939Y-104146887D01*
X82522525Y-104119820D01*
X82482970Y-104062225D01*
X82480833Y-103992388D01*
X82493436Y-103961667D01*
X82548954Y-103865506D01*
X81945000Y-103261552D01*
X81945000Y-102708000D01*
X82098553Y-102708000D01*
X82644999Y-103254447D01*
X82645000Y-103254446D01*
X82645000Y-102161553D01*
X82644999Y-102161552D01*
X82098553Y-102707999D01*
X82098553Y-102708000D01*
X81945000Y-102708000D01*
X81945000Y-102154446D01*
X82548953Y-101550493D01*
X82477124Y-101426078D01*
X82477123Y-101426077D01*
X82350539Y-101285490D01*
X82350536Y-101285488D01*
X82197477Y-101174282D01*
X82024647Y-101097334D01*
X81985000Y-101088906D01*
X81985000Y-101270191D01*
X81965315Y-101337230D01*
X81948681Y-101357872D01*
X81132681Y-102173871D01*
X81071358Y-102207356D01*
X81001666Y-102202372D01*
X80957319Y-102173871D01*
X80107786Y-101324338D01*
X80079542Y-101310198D01*
X80076362Y-101307129D01*
X79933099Y-101163866D01*
X79899614Y-101102543D01*
X79897561Y-101090081D01*
X79894805Y-101065616D01*
X79838650Y-100905133D01*
X79748192Y-100761170D01*
X79681603Y-100694581D01*
X79648118Y-100633258D01*
X79653102Y-100563566D01*
X79694974Y-100507633D01*
X79760438Y-100483216D01*
X79769284Y-100482900D01*
X80092588Y-100482900D01*
X80159627Y-100502585D01*
G37*
%TD.AperFunction*%
%TA.AperFunction,Conductor*%
G36*
X81545000Y-103261552D02*
G01*
X80940890Y-103865660D01*
X80879567Y-103899145D01*
X80809875Y-103894161D01*
X80765528Y-103865660D01*
X80406818Y-103506949D01*
X80373333Y-103445626D01*
X80370499Y-103419275D01*
X80370499Y-103345726D01*
X80390184Y-103278690D01*
X80442988Y-103232935D01*
X80512146Y-103222991D01*
X80575702Y-103252016D01*
X80582180Y-103258048D01*
X80804999Y-103480868D01*
X80805000Y-103480867D01*
X80805000Y-103345809D01*
X80824685Y-103278770D01*
X80841319Y-103258128D01*
X81545000Y-102554446D01*
X81545000Y-103261552D01*
G37*
%TD.AperFunction*%
%TD*%
M02*
